<svg xmlns="http://www.w3.org/2000/svg" width="1024" height="1024"><path fill="#fdfdfd" d="M0 0h1024v1024H0z"/><path fill="#fafaf9" d="m543.438 194.188 2.835.339c13.8 1.66 27.328 3.692 40.727 7.473l2.2.593A315 315 0 0 1 604 207l2.35.757c12.955 4.23 25.375 9.33 37.65 15.243l2.485 1.185c21.858 10.543 42.274 24.258 60.574 40.174 2.194 1.855 4.455 3.61 6.722 5.375 5.765 4.591 10.965 9.67 16.157 14.891l1.458 1.46c6.961 6.99 13.406 14.116 19.215 22.094 1.827 2.395 3.764 4.69 5.694 7.005 4.53 5.511 8.58 11.24 12.508 17.191l2.08 3.148C781.688 352.017 790.716 368.679 798 387l.833 2.038c1.883 4.605 3.575 9.25 5.167 13.962l.95 2.8c8.755 26.344 12.765 53.499 14.05 81.2l.121 2.54C821.607 551.65 803.055 617.28 767 668l-1.483 2.112c-7.667 10.875-15.807 20.835-25.072 30.378-1.842 1.925-3.59 3.922-5.32 5.947-5.841 6.764-12.321 12.786-19.125 18.563l-2.54 2.203C695.224 742.778 675.076 755.636 654 767l-1.855 1.006c-12.579 6.755-25.826 11.9-39.145 16.994l-2.508.963c-23.749 9.025-48.695 12.302-73.867 14.787l-3.868.387c-12.558 1.173-24.75.867-37.32-.012-.656-.045-1.312-.09-1.988-.138C423.892 796.146 359.484 770.337 307 724l-1.58-1.388A282 282 0 0 1 270 685l-2.344-2.93C255.316 666.412 245.14 649.703 236 632l-1.14-2.196c-33.597-65.587-39.601-148.507-17.522-218.732A789 789 0 0 1 220 403l.818-2.45c8.644-25.671 20.849-49.242 36.182-71.55l1.56-2.296c6.614-9.727 13.612-18.924 21.44-27.704l2.605-2.941C293.28 284.219 304.351 272.74 317 263l2.969-2.344c12.793-10.05 26.025-19.391 40.118-27.532a239 239 0 0 0 4.178-2.517C392.22 213.45 425.698 202.204 458 197l2.685-.446c9.73-1.59 19.506-2.764 29.315-3.742l2.4-.254c17.102-1.561 34.044-.467 51.038 1.63"/><path fill="#fac933" d="M511 373c2.865 2.605 4.849 5.606 7 8.813 3.334 4.912 6.85 9.617 10.563 14.25 4.867 6.082 9.239 12.369 13.437 18.937 10.126-2.594 20.064-5.768 30-9l2.182-.699C591.029 399.866 613.775 392.415 626 379l3 1c-.4.77-.802 1.54-1.215 2.332C615.955 406.236 609.153 432.917 604 459l3-1c2.707-6.767 4.4-13.932 6.287-20.967 1.606-5.926 1.606-5.926 2.713-7.033 10.148-2.293 20.349-2.36 30.688-2.312l2.45.005C697.94 427.877 741.904 441.345 778 475a717 717 0 0 0 4.063 3.5c4.534 3.945 8.725 8.217 12.937 12.5l4 4c-22.443 23.116-43.648 42.594-74.147 54.286-1.587.611-3.162 1.25-4.736 1.894-32.7 12.9-70.182 11.805-104.117 5.82-3.316-8.127-6.531-16.306-8-25l1-1-5 1 .563 1.686c3.402 10.253 6.597 20.45 8.937 31.001 3.159 14.055 8.261 27.34 14.5 40.313l-2.402-12.656A1643 1643 0 0 0 622 574l3.18.223c8.493.556 16.937.853 25.449.77l2.713-.025c3.675-.036 7.35-.079 11.023-.14 2.734-.042 5.467-.065 8.201-.086l2.472-.056c11.635-.052 21.881 5.16 30.212 13.126 8.49 9.004 13.302 17.75 13.066 30.231-.306 2.865-.941 5.044-2.004 7.707-1.394 3.623-1.403 3.995 0 7.938l.903 1.945c2.009 6.056 1.896 14.246-.215 20.304-3.206 4.91-7.364 9.184-13 11.063-1.187 3.56-1.351 6.973-1.562 10.688l-.131 2.126q-.158 2.593-.307 5.186-3.562.04-7.125.063l-2.016.025c-4.066.02-7.871-.3-11.859-1.088l-.445 1.793c-1.64 5.777-3.292 8.893-8.555 12.207-6.206 2.69-11.97 3.497-18.687 3.438l-2.471.06c-5.442-.004-8.515-.92-12.842-4.498l-2.125-2.187c-3.238-2.042-4.86-2.108-8.625-2.313-10.316-.593-17.314-4.911-24.25-12.5-6.584-8.907-9.505-17.775-9.223-28.785l.028-2.729c.03-2.85.08-5.699.133-8.548q.073-4.28.122-8.56.03-2.65.09-5.299c.065-5.402-.707-9.875-2.15-15.079-.125-3.5-.125-3.5 0-6 7.66 1.103 15.098 2.677 22.566 4.679 3.31.87 5.978 1.321 9.434 1.321-18.399-7.337-37.417-12.862-56.536-17.979A438 438 0 0 1 547 587v8l2-4c4.52.712 8.633 2.284 12.875 3.938 4.996 1.94 9.948 3.663 15.125 5.062 3.79 27.237 3.386 55.034-2 82l-.47 2.39C569.87 707.244 559.893 730.941 545 749l-2.457 3.063C533.486 763.113 523.189 773.008 513 783c-3.391-1.47-5.621-3.364-8.23-5.965l-2.42-2.408-2.538-2.564-2.6-2.62c-5.81-5.9-11.18-11.867-16.212-18.443l-2.293-2.672c-5.895-7.086-10.257-14.658-14.52-22.828l-1.633-3.127c-5.626-11.054-9.827-22.26-12.741-34.31l-.749-2.936c-3.506-14.205-4.365-27.718-4.27-42.28.019-2.935.02-5.87.02-8.806q.007-2.82.018-5.639l.003-2.639c.032-4.064.217-7.79 1.165-11.763q.324-3.653.563-7.312l.253-3.801L447 600c4.512-2.016 9.02-3.72 13.723-5.238 2.247-.752 4.445-1.587 6.652-2.45C471 591 471 591 474 591l1 2 1-5c-10.473 1.29-20.232 4.335-30.25 7.5q-3.607 1.129-7.215 2.252-2.225.693-4.448 1.396c-4.66 1.46-9.339 2.705-14.087 3.852 0-3 0-3 2-5-4.828.598-8.504 2.679-12.687 5l-4.012 2.188L402 607l-2 1c1.235-4.02 2.697-7.503 4.828-11.125l1.666-2.868L408.25 591c10.776-18.8 17.463-38.24 22.77-59.184.588-2.291 1.232-4.571 1.98-6.816l-2.172-.762c-3.094-1.355-5.402-2.99-8.078-5.05l-3.156-2.41Q417.796 515.39 416 514q-3.259-2.52-6.522-5.034a1029 1029 0 0 1-4.338-3.36c-4.082-3.15-8.21-5.964-12.68-8.537L391 496v-2a109 109 0 0 1 6-3.875c5.598-3.484 10.936-7.201 16.188-11.187l2.027-1.538q1.966-1.493 3.928-2.988a742 742 0 0 1 8.232-6.162l2.586-1.922C432 465 432 465 434 465l-1.023-2.746-1.352-3.692-1.336-3.62c-1.218-3.512-2.005-7.049-2.775-10.681-4.541-19.972-13.971-42.25-26.307-58.644C400 384 400 384 400 382c4.88 1.743 9.082 4.413 13.418 7.195 14 8.67 29.355 14.082 44.894 19.243q2.798.942 5.592 1.888a2525 2525 0 0 0 12.173 4.076c1.96.61 3.928 1.12 5.923 1.598l.816-2.236c1.142-2.667 2.394-4.672 4.125-6.987l1.757-2.364 1.865-2.476 1.903-2.557q4.132-5.544 8.32-11.048c3.772-4.97 7.32-9.797 10.214-15.332"/><path fill="#fac72f" d="M511 210c4.637 1.68 7.5 4.107 10.875 7.625l1.603 1.638c3.414 3.514 6.725 7.103 9.897 10.839a136 136 0 0 0 3.438 3.859c21.502 23.323 34.596 51.48 39.744 82.584.286 1.582.612 3.158.99 4.72 1.75 7.368 1.722 14.667 1.659 22.192-.018 2.209-.02 4.418-.02 6.627-.032 13.446-.646 26.674-3.186 39.916l-27 9-3-8 2 13 2.902-1.137c11.636-4.497 23.392-8.133 35.465-11.261 11.655-3.043 22.637-6.673 33.633-11.602l-2.247.459q-5.032 1.024-10.066 2.041l-3.537.723-3.388.683-3.127.635C595 385 595 385 592 385l.225-2.064c.675-7.19.824-14.263.732-21.479l-.031-2.852c-.045-3.922-.095-7.844-.173-11.766a844 844 0 0 1-.108-8.694l-.073-2.637c-.045-10.814 4.603-19.587 12.088-27.195 6.172-5.624 11.483-8.389 19.903-8.688 4.442-.205 7.003-.453 10.312-3.5l1.367-1.555c4.993-4.46 10.665-5.1 17.07-5.007l2.26.025c6.945.212 12.988 1.304 18.291 6.096 2.681 2.975 4.327 5.696 6.137 9.316h17l-.25 6.438c.298 4.697.539 6.826 3.848 10.25a231 231 0 0 0 6.5 4.386c4.125 2.738 5.331 4.214 6.902 8.926.703 6.443.505 12.15-1.75 18.25-1.207 3.417-1.207 3.417-.559 6.875q1.144 2.167 2.297 4.328c2.604 6.555 2.077 14.865-.55 21.36-2.534 4.842-5.972 8.99-9.438 13.187l-1.875 2.688c-6.271 6.824-15.786 11.981-25.117 12.402a76.4 76.4 0 0 1-10.973-.59c-6.109-.704-12.205-.646-18.347-.625l-3.475-.012c-7.453.009-14.798.396-22.213 1.137-.542-7.74 1.469-14.573 3.5-22 .5-1.878.5-1.878 1.012-3.793Q627.742 383.6 629 379c-3.035 1.808-5.982 3.66-8.875 5.688C601.819 396.872 581.022 404.913 560 411l-2.117.621c-5.272 1.545-10.544 3.08-15.883 4.379l-3.5-4.812-2.227-3.06a1729 1729 0 0 1-4.234-5.85c-2.823-3.913-5.659-7.808-8.625-11.614l-1.34-1.721a1411 1411 0 0 0-3.777-4.802c-2.4-3.283-4.346-6.578-6.297-10.141l-2.273 3.262c-4.891 6.988-9.794 13.947-15.04 20.676-6.943 8.633-6.943 8.633-12.687 18.062-5.36-.607-10.158-1.858-15.258-3.59l-2.355-.788q-3.76-1.268-7.512-2.56l-2.582-.883C436.867 402.19 420.28 395.435 405 385a432 432 0 0 0-5-3l1.398 2.176c12.883 20.443 22.446 41.564 28.57 64.969a132 132 0 0 0 2.844 9.293C434 462 434 462 434 465c-1.354 1.283-1.354 1.283-3.262 2.566l-2.122 1.457-2.303 1.54q-2.356 1.613-4.708 3.234l-2.37 1.63c-3.118 2.194-6.117 4.524-9.11 6.885C395.115 494 395.115 494 391 494v2l2.176.766c3.068 1.34 5.356 2.945 8.012 4.984l3.148 2.402c2.745 2.125 5.475 4.269 8.203 6.414l2.39 1.874a970 970 0 0 1 4.664 3.686c4.304 3.387 8.576 6.29 13.407 8.874a684 684 0 0 1-1.324 5.96c-.487 2.188-.944 4.382-1.383 6.58-4.54 21.905-13.84 41.44-24.81 60.773-1.577 2.858-3.041 5.759-4.483 8.687l1.906-1.172c14.873-9.049 14.873-9.049 18.32-8.426L423 598c-2.677 3.65-4.539 6.009-8.879 7.473l-2.29.787-2.394.803c-5.104 1.346-5.104 1.346-9.437 3.937 6.192-.933 12.258-2.01 18.313-3.625 4.411-1.154 8.145-1.685 12.687-1.375l-.225 1.867c-.7 6.805-.822 13.49-.732 20.324l.031 2.78c.045 3.83.094 7.658.173 11.487.325 16.744-1.189 27.982-13.126 40.515-6.496 6.18-13.238 9.038-22.183 9.402-5.496.275-8.608 1.784-12.903 5.152-7.09 5.13-16.67 4.438-25.035 3.473-5.968-1.73-10.798-4.53-14-10l-2-6h-20v-16l-5-2c-5.218-3.94-8.811-8.52-10-15-.654-7.263-.223-13.347 2.387-20.148 1.307-3.946-.279-6.619-1.95-10.227-2.462-6.209-1.688-11.596.333-17.809C310.9 594.36 317.294 586.555 326 581l1.98-1.27c4.626-2.79 8.252-3.868 13.598-3.812l2.733.02 2.939.035 6.223.037q4.88.035 9.76.086c15.292.34 15.292.34 30.4-1.66 2.821-.52 5.505-.502 8.367-.436l-.805 3.148c-3.711 13.264-3.711 13.264-5.195 26.852 7.074-17.086 12.6-34.19 17.451-52.016a369 369 0 0 1 1.623-5.64c.855-3.09 1.505-6.125 2.051-9.282l.508-2.902L418 532l-3 1-.344 1.922c-.886 4.157-2.019 8.233-3.156 12.328l-.684 2.508-.66 2.383c-.198.717-.395 1.434-.6 2.172C409 556 409 556 408 557c-23.179 4.975-47.629 6.08-71 2q-2.189-.285-4.379-.555c-32.367-4.166-62.653-19.313-86.033-41.926a356 356 0 0 0-5.447-5.074l-4.016-3.695-1.875-1.716c-4.066-3.773-7.732-7.747-11.25-12.034 3.537-3.617 7.099-7.138 10.938-10.437 2.78-2.391 5.383-4.87 7.937-7.5 32.381-32.696 78.075-48.103 123.375-48.438 14.018.043 27.86 1.59 41.75 3.375q1.724 5.091 3.438 10.188l.986 2.908.947 2.822.873 2.587C415 452 415.614 454.42 416 457l-1 1 4 1c-2.878-17.107-7.797-33.49-13-50l-.917-2.938C402.36 397.377 399.517 388.954 395 381c.892 4.775 1.87 9.52 3.023 14.238l.548 2.252q.546 2.224 1.108 4.443c1.006 4.118 1.523 7.792 1.321 12.067l-3.129-.219a429 429 0 0 0-27.121-.906l-2.955-.014c-4.733.01-9.13.27-13.795 1.139-11.57.755-19.779-.502-28.8-7.98-8.276-7.6-16.18-16.564-17.571-28.098-.147-7.028.592-11.717 4.375-17.703 1.305-2.907.991-4.219-.004-7.219l-1.531-2.383c-2.857-5.09-2.13-10.968-1.469-16.617 1.447-4.288 3.973-6.373 7.781-8.7 3.146-1.933 5.71-3.579 8.219-6.3.942-4.8.67-9.175 0-14q3.375-.079 6.75-.125l3.797-.07c3.181.18 4.818.505 7.453 2.195l.688-3.125c1.608-5.355 4.041-8.529 8.816-11.36 8.46-4.01 17.414-5.548 26.465-2.523 3.537 1.675 6.3 3.162 8.879 6.145 2.975 2.575 5.08 2.362 8.964 2.425 9.205.438 15.404 3.105 22.188 9.438 11.268 12.661 11.415 25.095 11.125 41.188q-.07 5.052-.117 10.105l-.026 2.468c-.05 7.778.4 15.486 1.018 23.239-7.147-1.356-14.216-2.966-21.285-4.679-3.814-.971-3.814-.971-7.715-1.321 7.822 4.03 15.76 7.07 24.125 9.75l2.743.889c5.398 1.689 10.712 2.864 16.284 3.807 5.194 1.01 10.225 2.587 15.286 4.116l6.308 1.88 2.771.834c2.152.627 4.304 1.2 6.483 1.724l-1-5-1.656.64c-3.218.494-4.912-.519-7.844-1.89-6.05-2.675-12.064-4.305-18.5-5.75-2.532-11.126-2.396-22.275-2.375-33.625v-3.026c.027-15.777.893-30.905 4.375-46.349l.501-2.312c1.915-8.618 4.834-16.665 8.499-24.688l.925-2.11c9.691-22.075 23.518-39.73 40.637-56.577l3.346-3.319Q506.946 213.99 511 210"/><path fill="#fbbd09" d="m508.5 162.75 2.57.002c17.023.045 33.595 1.107 50.415 3.777 2.605.413 5.211.813 7.818 1.211l5.045.787 2.323.357c4.563.731 8.898 1.773 13.329 3.116q3.034.835 6.07 1.664c21.583 5.969 41.945 13.419 62.134 23.104a854 854 0 0 0 3.81 1.812c9.057 4.28 17.526 9.035 25.986 14.42q2.152 1.315 4.313 2.617c8.68 5.292 16.76 11.025 24.687 17.383l2.535 1.984A507 507 0 0 1 727 241l2.816 2.25c8.669 7.077 16.575 14.925 24.496 22.813l1.696 1.68c7.144 7.091 13.776 14.326 19.992 22.257l2.645 3.285C803.079 324.588 823.325 360.998 835 399l.94 3.011c8.3 26.766 14.127 54.45 14.263 82.579l.021 2.953q.024 4.698.026 9.394l.004 3.243C850.25 517 849.524 533.348 847 550l-.691 4.941c-.645 4.38-1.433 8.72-2.309 13.059l-.458 2.291c-2.44 11.833-5.862 23.338-9.542 34.834l-.634 1.997c-2.623 8.22-5.62 16.1-9.366 23.878q-1.255 2.7-2.508 5.402C812.108 656.342 801.904 675.11 789 693l-1.6 2.221c-5.39 7.435-10.891 14.656-17.17 21.373a216 216 0 0 0-5.382 6.066c-4.33 4.962-8.94 9.625-13.598 14.278l-2.69 2.686C742.63 745.5 736.626 750.916 730 756a1795 1795 0 0 0-5.25 4.375C712.488 770.365 699.643 779.01 686 787l-2.002 1.179C668.343 797.343 652.125 805.959 635 812q-2.75 1.038-5.5 2.082a316.5 316.5 0 0 1-41.056 12.346c-2.05.48-4.085 1.017-6.116 1.568-22.768 5.671-46.56 6.49-69.89 6.442h-3.368c-11.256-.024-22.448-.306-33.66-1.34l-2.535-.233c-5.126-.53-9.891-1.566-14.875-2.865q-3.094-.518-6.203-.941C420.252 824.374 388.427 813.247 360 799l-2.779-1.375C344.95 791.52 333.295 784.763 322 777l-1.861-1.277C307.434 766.948 295.333 757.493 284 747l-2.79-2.512c-10.58-9.562-21.057-19.33-29.894-30.558a219 219 0 0 0-5.226-6.36C221.384 678.386 202.623 643.355 191 607l-.988-3.04c-6.986-21.578-12.16-42.806-14.703-65.354a216 216 0 0 0-.934-6.86c-3.273-22.763-2.222-47.01.625-69.746l.292-2.535C181.535 405.827 202.365 354.265 233 310l1.234-1.784A524 524 0 0 1 243 296l1.251-1.697c7.81-10.495 16.645-19.927 25.749-29.303l1.808-1.875c6.193-6.404 12.482-12.433 19.481-17.969 2.781-2.212 5.458-4.522 8.149-6.844C327.918 214.537 361.986 195.15 397 183l5.375-2.062c7.014-2.539 14.227-4.41 21.426-6.34a378 378 0 0 0 5.883-1.664c10.316-2.933 20.752-4.804 31.34-6.464q2.858-.45 5.71-.936c13.923-2.354 27.68-2.8 41.766-2.784M316 264l-1.643 1.331C299.582 277.351 285.58 290.857 274 306a783 783 0 0 1-2.55 3.14c-7.46 9.2-14.076 18.884-20.45 28.86l-1.21 1.893C240.033 355.31 230.89 371.699 225 389l-1.152 3.082C196.045 466.962 198.73 551.226 232 624c7.508 15.764 15.764 30.846 26 45l1.475 2.063C266.76 681.2 274.643 690.732 283 700l1.711 1.903C308.178 727.86 335.28 748.273 366 765l2.382 1.31c8.686 4.765 17.355 9.14 26.618 12.69l2.43.968C433.871 794.476 470.912 800.905 510 802l2.611.084c9.287.16 18.421-.83 27.639-1.834l2.533-.271C586.998 795.216 628.584 782.934 667 760l2.048-1.218c33.773-20.238 64.93-46.26 88.56-77.923a368 368 0 0 1 2.897-3.816C775.363 657.728 786.42 636.338 796 614l1.547-3.543c1.2-2.802 2.34-5.619 3.453-8.457l1.195-2.95c4.114-10.724 6.605-21.841 9.12-33.029a560 560 0 0 1 1.85-7.85c5.268-22.78 6.947-47.832 5.835-71.171l-.129-2.779C815.197 413.784 787.951 351.133 742 298l-1.57-1.838c-11.065-12.837-23.13-24.844-36.774-34.916a169 169 0 0 1-5.031-3.965C689.839 250.15 680.618 243.952 671 238l-2.01-1.26C645.58 222.113 620.37 211.85 594 204l-3.578-1.09c-14.405-4.28-28.88-6.545-43.772-8.273-2.752-.322-5.502-.664-8.252-1.006C458.275 184.009 377.51 213.518 316 264"/><path fill="#fbfbfa" d="m507.75 177.813 2.78.001c21.32.039 41.57 1.929 62.47 6.186l2.945.59c12.254 2.48 24.249 5.268 36.055 9.41l2.545.873C638.07 203.008 660.964 213.65 682 227l2.95 1.828c14.177 9.096 27.81 19.606 40.05 31.172a553 553 0 0 0 4.063 3.563l1.937 1.695a729 729 0 0 0 4.25 3.672c4.388 3.81 8.338 7.72 12.086 12.16 1.56 1.791 3.19 3.404 4.914 5.035 5.51 5.436 10.06 11.738 14.75 17.875l1.523 1.977c10.78 14.01 20.02 28.51 28.477 44.023l1.157 2.107C806.612 367.544 813.521 383.27 819 400l.86 2.622c21.803 67.243 22.374 146.512-6.41 212.073a303 303 0 0 0-3.305 7.86C802.135 642.097 792.322 660.82 780 678l-1.351 1.9c-8.317 11.66-17.197 22.689-26.95 33.178-2.504 2.71-4.948 5.465-7.386 8.235a102 102 0 0 1-10.239 9.925c-2.29 1.946-4.49 3.975-6.699 6.012C698.271 763.461 662.808 784.726 626 798l-4.406 1.648c-12.021 4.423-24.187 7.76-36.658 10.663a404 404 0 0 0-5.972 1.45c-8.735 2.14-17.476 3.445-26.402 4.427l-2.36.26c-30.887 3.292-62.645 3.51-93.202-2.448l-3.139-.6C432.35 809.207 411.3 803.284 391 795l-2.46-1.003C356.034 780.624 326.895 762.588 300 740c-1.2-1.002-1.2-1.002-2.426-2.023-5.489-4.686-10.511-9.84-15.574-14.977a593 593 0 0 0-7.36-7.29c-18.65-18.222-34.07-40.595-46.44-63.501-1.268-2.335-2.563-4.654-3.856-6.975-24.877-45.296-35.542-96.19-35.594-147.547l-.004-2.372c.005-13.957 1.09-27.518 3.254-41.315q.331-2.325.656-4.648C200.301 397.102 222.66 347.562 255 306l2.352-3.156c7.47-10.002 15.802-19.04 24.648-27.844q1.475-1.506 2.945-3.016c6.684-6.82 13.542-13.072 21.055-18.984q1.679-1.377 3.352-2.762c15.495-12.747 32.09-23.56 49.648-33.238l2.507-1.398C374.916 208.16 388.617 202.289 403 197l4.035-1.527c7.5-2.782 15.072-5.014 22.834-6.942q2.22-.553 4.438-1.125c14.422-3.707 28.94-6.39 43.693-8.406l2.265-.323c9.103-1.115 18.33-.876 27.485-.864M316 264l-1.643 1.331C299.582 277.351 285.58 290.857 274 306a783 783 0 0 1-2.55 3.14c-7.46 9.2-14.076 18.884-20.45 28.86l-1.21 1.893C240.033 355.31 230.89 371.699 225 389l-1.152 3.082C196.045 466.962 198.73 551.226 232 624c7.508 15.764 15.764 30.846 26 45l1.475 2.063C266.76 681.2 274.643 690.732 283 700l1.711 1.903C308.178 727.86 335.28 748.273 366 765l2.382 1.31c8.686 4.765 17.355 9.14 26.618 12.69l2.43.968C433.871 794.476 470.912 800.905 510 802l2.611.084c9.287.16 18.421-.83 27.639-1.834l2.533-.271C586.998 795.216 628.584 782.934 667 760l2.048-1.218c33.773-20.238 64.93-46.26 88.56-77.923a368 368 0 0 1 2.897-3.816C775.363 657.728 786.42 636.338 796 614l1.547-3.543c1.2-2.802 2.34-5.619 3.453-8.457l1.195-2.95c4.114-10.724 6.605-21.841 9.12-33.029a560 560 0 0 1 1.85-7.85c5.268-22.78 6.947-47.832 5.835-71.171l-.129-2.779C815.197 413.784 787.951 351.133 742 298l-1.57-1.838c-11.065-12.837-23.13-24.844-36.774-34.916a169 169 0 0 1-5.031-3.965C689.839 250.15 680.618 243.952 671 238l-2.01-1.26C645.58 222.113 620.37 211.85 594 204l-3.578-1.09c-14.405-4.28-28.88-6.545-43.772-8.273-2.752-.322-5.502-.664-8.252-1.006C458.275 184.009 377.51 213.518 316 264"/><path fill="#124a90" d="M816 495h2c.864 61.353-15.044 122.418-51 173l-1.483 2.112c-7.667 10.875-15.807 20.835-25.072 30.378-1.842 1.925-3.59 3.922-5.32 5.947-5.841 6.764-12.321 12.786-19.125 18.563l-2.54 2.203C695.224 742.778 675.076 755.636 654 767l-1.855 1.006c-12.579 6.755-25.826 11.9-39.145 16.994l-2.508.963C591.803 793.065 572.765 796.29 553 799l-2.683.368c-12.46 1.651-24.76 1.857-37.317 1.632 2.57-3.4 5.105-6.056 8.5-8.625 6.147-4.808 11.822-10.03 17.5-15.375l2.305-2.105c20.682-19.584 36.17-46.9 43.758-74.207l.775-2.751c1.935-6.935 3.672-13.892 5.162-20.937 2.668 2.413 4.303 5.036 6.125 8.125C602.827 694.15 609.257 701.541 620 704q3.091.209 6.188.313c4.484.223 6.545.754 9.625 4.062l1.617 1.902c3.41 3.741 7.453 4.611 12.32 5.098 3.432-.106 6.36-.97 9.625-2 5.02-1.502 8.332-1.144 13.344.125 4.793 1.05 8.256.063 12.468-2.25 3.345-2.675 5.891-5.406 7.813-9.25l1.934.492c4.062.673 8.019.653 12.129.633l2.431.012 2.354-.004 2.125-.004c2.174-.138 3.983-.359 6.027-1.129 1.02-3.06 1.021-4.727.816-7.895l-.119-2.896q-.134-3.006-.351-6.008c-.228-7.219-.228-7.219 2.378-10.121 2.147-1.572 2.147-1.572 4.297-2.837 3.465-2.176 4.44-4.46 5.979-8.243.708-5.272.035-9.116-2-14 .24-3.118.957-4.927 2.563-7.625 2.05-4.813 2.149-9.216 1.437-14.375-1.306-3.15-2.874-5.437-6-7 .07-1.088.14-2.176.21-3.297.505-11.236-.927-18.99-8.085-28.086-6.312-6.862-14.296-11.676-22.125-16.617 2.59-2.59 4.279-2.557 7.875-3.187 15.617-3.2 30.167-9.214 44.125-16.813l1.85-.988c11.765-6.306 22.106-13.907 31.908-22.957a145 145 0 0 1 5.93-5.117c3.86-3.297 7.053-7.057 10.312-10.938l2.746-3.227c5.344-6.241 5.344-6.241 10.461-12.668z"/><path fill="#124a91" d="M206 496c3.643 1.686 5.356 3.417 7.813 6.625 6.284 7.876 13.162 15.158 20.187 22.375l1.51 1.563C258.951 550.492 291.671 565.122 324 572v2l-3.09 1.707C311.582 581.05 303.052 587.308 298 597l-1.656 2.7c-2.013 4.944-1.42 9.508-1.051 14.755.17 4.42.21 5.94-2.738 9.479L290 626c-1.76 3.52-1.553 7.159-1 11 1.17 2.68 2.495 5.138 4.004 7.64 1.234 2.924.911 4.367-.004 7.36l-1.062 2.375c-1.578 4.416-1.419 8.119 0 12.563 2.068 3.07 3.718 4.293 6.656 6.44 2.859 2.503 4.228 3.896 5.14 7.614.15 3.376.054 6.636-.171 10.008l-.124 3.504A297 297 0 0 1 303 703q4.53.04 9.063.063l2.568.025c4.905.019 9.533-.255 14.369-1.088l1.031 1.61c3.5 5.101 6.781 8.904 12.969 10.39 4.901.084 9.544-.67 14.313-1.75 2.687-.25 2.687-.25 5.375 1.188 5.603 2.643 11.261 2.637 17.105.578 3.613-1.73 6.514-3.211 9.144-6.266 2.57-2.18 3.743-1.983 7.063-2.125 8.01-.43 15.387-3.91 21-9.625h2l.82-1.762c1.177-2.233 2.497-4.068 4.055-6.05 2.741-3.582 4.978-7.225 7.125-11.188h2l.58 2.272q1.33 5.209 2.67 10.415l.91 3.573c3.995 16.003 3.995 16.003 10.45 31.107 1 1.895 1.941 3.822 2.843 5.766 13.072 27.856 35.738 50.225 59.965 68.554L512 800v1c-23.852.663-47.792-1.284-71-7l-2.854-.702C389.51 781.048 344.572 757.173 307 724l-1.58-1.388A282 282 0 0 1 270 685l-2.344-2.93C255.316 666.412 245.14 649.703 236 632l-1.14-2.196c-18.88-36.857-29.203-79.17-28.923-120.554l.014-3.883q.018-4.684.049-9.367"/><path fill="#154a8e" d="M511 193c-3.122 3.205-6.293 6.115-9.812 8.875C489.704 211.198 478.962 221.198 470 233l-2.445 3.04C449.639 258.392 437.03 286.363 434 315h-2l-1.574-2.852-2.113-3.773-1.03-1.871c-5.58-9.908-12.928-16.617-23.947-20-2.566-.554-5.03-.73-7.649-.879-4.418-.333-4.418-.333-6.812-2.937L387 280c-5.993-4.606-12.697-4.9-20-4-1.986.7-1.986.7-3.687 1.625-4.09 1.698-5.916 1.05-10.055-.05-4.42-1.125-8.297-1.675-12.465.663-3.264 2.37-5.54 4.382-7.793 7.762-2.614.249-2.614.249-5.883.074l-3.535-.166-3.707-.22-3.73-.186Q311.57 285.27 307 285l.143 2.276c.188 3.428.304 6.855.42 10.286l.228 3.58c.219 8.683.219 8.683-2.764 12.154-2.437 1.856-2.437 1.856-4.883 3.352-2.418 1.321-2.418 1.321-4.144 4.352-.317 2.607-.317 2.607-.25 5.438l-.016 2.87c.093 2.676.093 2.676 1.344 4.727 1.274 2.716.796 4.133-.078 6.965a103 103 0 0 1-2.562 4.688c-2.656 5.187-3.521 9.548-2.438 15.312 1.098 2.608 2.403 4.63 4 7 1.156 3.467.893 5.86.688 9.5-.046 11.121 5.463 18.34 12.878 26.207A66 66 0 0 0 328 416v2l-1.639.316C305.427 422.46 285.397 429.048 267 440l-2.895 1.703c-11.098 6.796-21.002 14.955-30.46 23.844a113 113 0 0 1-6.333 5.453c-3.873 3.262-6.877 7.22-10.027 11.164-3.278 4.068-6.65 8.08-10.285 11.836h-1c-.775-31.309 4.053-61.333 14-91l.818-2.45c8.644-25.671 20.849-49.242 36.182-71.55l1.56-2.296c6.614-9.727 13.612-18.924 21.44-27.704l2.605-2.941C293.28 284.219 304.351 272.74 317 263l2.969-2.344c12.793-10.05 26.025-19.391 40.118-27.532a239 239 0 0 0 4.178-2.517C392.205 213.46 425.708 202.17 458 197l2.846-.462A492 492 0 0 1 479 194l3.27-.402c9.534-.974 19.159-.683 28.73-.598"/><path fill="#124b92" d="M514 193c24.292-1.23 49.596 2.688 73 9l2.243.597c4.961 1.34 9.867 2.823 14.757 4.403l2.35.757c12.955 4.23 25.375 9.33 37.65 15.243l2.485 1.185c21.858 10.543 42.274 24.258 60.574 40.174 2.194 1.855 4.455 3.61 6.722 5.375 5.765 4.591 10.965 9.67 16.157 14.891l1.458 1.46c6.961 6.99 13.406 14.116 19.215 22.094 1.827 2.395 3.764 4.69 5.694 7.005 4.53 5.511 8.58 11.24 12.508 17.191l2.08 3.148C781.688 352.017 790.716 368.679 798 387l.833 2.038c1.883 4.605 3.575 9.25 5.167 13.962l.95 2.8c6.157 18.527 9.487 36.915 12.05 56.2l.346 2.258c.897 6.065.764 12.129.716 18.242l-.013 3.36A2443 2443 0 0 1 818 494c-3.739-1.72-5.525-3.602-8.062-6.875-6.661-8.348-13.63-16.537-21.872-23.376-2.084-1.764-4.081-3.602-6.09-5.452-5.171-4.601-10.712-8.478-16.476-12.297l-3.182-2.114C753.86 438.366 745.32 433.849 736 430l-2.734-1.184A157 157 0 0 0 726 426l-3.375-1.242c-9.095-3.203-18.113-5.22-27.625-6.758v-2l2.125-1.066c9.281-4.83 15.77-10.253 22.188-18.434l1.275-1.617c4.125-5.447 6.86-10.65 6.662-17.57l-.047-2.762c-.115-2.518-.115-2.518-.832-4.727L726 368c1.813-2.5 1.813-2.5 4-5 2.523-4.285 2.671-8.134 2-13-1.062-2.85-2.465-5.383-4-8-1.187-2.098-1.187-2.098-2-4l.875-2.125c1.7-4.346 2.04-8.284 1.125-12.875-2.589-4.364-5.577-7.388-10.25-9.398C715 311 715 311 714.614 308.247c.02-3.524.226-6.985.511-10.497l.227-3.703c.188-3.019.405-6.032.648-9.047l-2.415.171c-3.61.24-7.222.442-10.835.642l-3.8.271-3.653.186-3.364.206C689 286 689 286 686.74 283.596L685 281c-4.511-3.777-8.856-3.29-14.437-3.062-5.728.208-10.124.126-15.563-1.938-6.796-.916-12.365.004-18 4l-2.312 2.688c-3.076 2.646-3.964 2.62-7.875 2.812-10.854.582-18.554 6.804-25.813 14.5-5.374 6.495-5.374 6.495-9 14h-2l-.34-2.55c-7.09-44.629-33.086-84.87-69.116-111.885-2.737-2.063-4.621-3.681-6.544-6.565"/><path fill="#f8cb34" d="M511 404h2c1.48 2.055 1.48 2.055 3.188 4.875 2.346 3.807 4.753 7.502 7.375 11.125C533 433.345 533 433.345 533 439l3.313-1.75c9.285-4.62 19.195-7.354 29.187-10l3.531-.957C577.608 424 577.608 424 581 424c-1.45 9.513-3.608 18.66-6.375 27.875l-.848 2.877c-1.984 6.443-4.585 12.314-7.777 18.248l2.35.443c12.853 2.703 24.273 13.053 34.65 20.557-4.164 4.55-8.846 7.77-14 11.125l-2.406 1.59c-6.12 4.028-11.412 7.454-18.594 9.285a525 525 0 0 0 3.367 9.89c2.741 7.871 5.186 15.722 7.008 23.86l.507 2.235c.87 4.069 1.288 7.857 1.118 12.015-6.925-.604-13.409-1.913-20.125-3.687l-3.033-.794c-8.244-2.223-16.044-5.045-23.842-8.519l-.324 1.676C529.379 564.013 519.828 574.556 513 584c-3.39-1.13-3.896-1.84-5.926-4.648l-1.657-2.283c-.57-.807-1.142-1.613-1.73-2.444l-1.762-2.469C491 556.66 491 556.66 491 551q-2.532.902-5.062 1.813l-2.848 1.019c-3.122 1.135-3.122 1.135-6.172 2.61-5.288 2.293-10.946 3.39-16.543 4.683l-3.39.8c-4.65 1.094-9.296 2.16-13.985 3.075.565-6.787 1.921-12.923 3.875-19.437l.777-2.659q.774-2.64 1.563-5.275.795-2.666 1.572-5.336c1.249-4.262 2.514-8.385 4.4-12.418l1.043-2.258L457 516l-2.621.18c-9.856-.524-19.056-8.942-26.504-14.946A64 64 0 0 0 420 496c1.267-3.802 2.55-4.217 5.938-6.25 3.78-2.314 7.424-4.694 11-7.312C450.26 473 450.26 473 457 473l-1.39-3.375c-3.688-9.115-6.72-18.067-8.883-27.66-.423-2.834-.423-2.834-1.727-3.965a100 100 0 0 1-1.062-4.812l-.536-2.645C443 428 443 428 443 424c16.113 3.166 31.505 8.67 47 14l.855-2.248a49 49 0 0 1 3.465-6.791l1.362-2.245 1.443-2.341 1.48-2.408c8.161-13.15 8.161-13.15 12.395-17.967"/><path fill="#1c80cb" d="M474 591a94 94 0 0 1 4.813 7q1.256 1.971 2.519 3.938l1.307 2.04c1.356 2.015 2.808 3.911 4.306 5.823 3.652 4.805 6.37 10.028 9.118 15.386l1.595 3.1c11.093 21.81 13.95 41.524 14.092 65.775q.042 3.642.09 7.284.108 8.826.16 17.654c.815-6.434 1.145-12.714 1.176-19.195q.034-2.93.072-5.86c.035-3.027.064-6.054.078-9.082.065-12.266.637-23.208 4.674-34.863l.916-2.733c.843-2.39 1.752-4.734 2.709-7.08l1.028-2.533c5.292-12.68 12.22-24.432 20.036-35.71A75.7 75.7 0 0 0 549 591c4.52.712 8.633 2.284 12.875 3.938 4.996 1.94 9.948 3.663 15.125 5.062 3.79 27.237 3.386 55.034-2 82l-.47 2.39C569.87 707.244 559.893 730.941 545 749l-2.457 3.063C533.486 763.113 523.189 773.008 513 783c-3.391-1.47-5.621-3.364-8.23-5.965-.8-.794-1.598-1.589-2.42-2.408l-2.538-2.564-2.6-2.62c-5.81-5.9-11.18-11.867-16.212-18.443l-2.293-2.672c-5.895-7.086-10.257-14.658-14.52-22.828l-1.633-3.127c-5.626-11.054-9.827-22.26-12.741-34.31l-.749-2.936c-3.506-14.205-4.365-27.718-4.27-42.28.019-2.935.02-5.87.02-8.806q.007-2.82.018-5.639l.003-2.639c.032-4.064.217-7.79 1.165-11.763q.324-3.653.563-7.312l.253-3.801L447 600c4.512-2.016 9.02-3.72 13.723-5.238 2.247-.752 4.445-1.587 6.652-2.45C471 591 471 591 474 591"/><path fill="#134d8e" d="M511 373c2.865 2.605 4.849 5.606 7 8.813 3.334 4.912 6.85 9.617 10.563 14.25 4.867 6.082 9.239 12.369 13.437 18.937 10.126-2.594 20.064-5.768 30-9l2.182-.699C591.029 399.866 613.775 392.415 626 379l3 1c-1.055 2.78-1.702 3.835-4.352 5.3C611.292 393.87 603.677 420.6 599 435q-.665 1.955-1.336 3.906C595.506 445.22 593.51 451.5 592 458c-.644 2.34-1.32 4.67-2 7l2.209.789c2.87 1.245 4.983 2.677 7.451 4.59l2.64 2.03 2.763 2.154 5.652 4.355 2.75 2.126a889 889 0 0 0 9.66 7.331l2.695 2.023A138 138 0 0 0 631 494v2c-1.61 1.36-3.294 2.636-5 3.875l-3.309 2.426-1.804 1.315c-2.65 1.944-5.274 3.923-7.898 5.901q-4.044 3.044-8.1 6.071-1.821 1.361-3.641 2.726a1127 1127 0 0 1-4.623 3.436l-2.586 1.922C592 525 592 525 590 525l1.102 2.98c2.954 8.12 5.566 16.244 7.836 24.582 4.142 14.892 10.731 28.012 17.975 41.635l1.513 2.846 1.356 2.532c1.221 2.431 2.245 4.886 3.218 7.425l-2.41-1.258c-20.223-10.405-40.862-19.799-62.403-27.117l-2.13-.724c-6.9-2.707-6.9-2.707-14.057-3.901-1.32 1.669-1.32 1.669-2.629 3.852-4.086 6.338-8.727 12.213-13.361 18.156a173 173 0 0 0-11.567 16.96L513 615h-2c-1.305-1.879-1.305-1.879-2.875-4.562-3.001-4.873-6.305-9.27-9.937-13.688-5.94-7.247-11.134-14.867-16.188-22.75l-2.492.832q-3.663 1.22-7.328 2.43a1648 1648 0 0 0-9.168 3.062 525 525 0 0 1-9.617 3.133c-10.588 3.424-20.586 7.815-30.582 12.668l-1.883.914c-7.09 3.457-14.09 7.031-20.93 10.961 1.235-4.02 2.697-7.503 4.828-11.125l1.666-2.868L408.25 591c10.776-18.8 17.463-38.24 22.77-59.184.588-2.291 1.232-4.571 1.98-6.816l-2.172-.762c-3.094-1.355-5.402-2.99-8.078-5.05l-3.156-2.41Q417.796 515.39 416 514q-3.259-2.52-6.522-5.034a1029 1029 0 0 1-4.338-3.36c-4.082-3.15-8.21-5.964-12.68-8.537L391 496v-2a109 109 0 0 1 6-3.875c5.598-3.484 10.936-7.201 16.188-11.187l2.027-1.538q1.966-1.493 3.928-2.988a742 742 0 0 1 8.232-6.162l2.586-1.922C432 465 432 465 434 465l-1.023-2.746-1.352-3.692-1.336-3.62c-1.218-3.512-2.005-7.049-2.775-10.681-4.541-19.972-13.971-42.25-26.307-58.644C400 384 400 384 400 382c4.88 1.743 9.082 4.413 13.418 7.195 14 8.67 29.355 14.082 44.894 19.243q2.798.942 5.592 1.888a2525 2525 0 0 0 12.173 4.076c1.96.61 3.928 1.12 5.923 1.598l.816-2.236c1.142-2.667 2.394-4.672 4.125-6.987l1.757-2.364 1.865-2.476 1.903-2.557q4.132-5.544 8.32-11.048c3.772-4.97 7.32-9.797 10.214-15.332m0 31a141 141 0 0 0-5.125 7.188l-1.48 2.186C496.272 425.186 496.272 425.186 490 438l-2.484-.854C465.548 429.557 465.548 429.557 443 424l.477 3.29c.332 2.357.635 4.719.898 7.085.6 3.482 1.51 6.524 2.676 9.844.974 2.855 1.863 5.732 2.744 8.617 2.097 6.861 4.366 13.566 7.205 20.164l-2.164.352c-10.08 2.304-18.43 9.024-26.488 15.16A75 75 0 0 1 420 494c1.263 3.79 2.496 4.173 5.875 6.188a151 151 0 0 1 11.813 8c6.289 4.614 11.264 8.084 19.312 7.812l-.883 1.633C451.16 527.578 448.751 538.287 446 549q-.522 1.975-1.047 3.95c-1.1 4.215-1.953 7.67-1.953 12.05a2128 2128 0 0 0 19.438-4.375l2.658-.594c6.248-1.455 11.998-3.548 17.904-6.031 2.66-1.022 5.329-2.01 8-3l.313 2.68c2.003 9.677 10.782 18.618 16.687 26.32l1.64 2.348c.45.545.898 1.09 1.36 1.652h2c1.402-1.627 1.402-1.627 2.793-3.77l1.652-2.43 1.742-2.612 1.769-2.625A1708 1708 0 0 0 526 565l1.294-1.931c4.174-5.584 4.174-5.584 5.706-12.069l2.473 1.102c7.993 3.392 15.999 6.012 24.402 8.21l2.914.77A106.3 106.3 0 0 0 580 564c-.97-16.485-6.785-32.452-12-48l3.25-1.062c11.664-4.39 23.106-12.005 31.75-20.938-16.987-14.044-16.987-14.044-37-21l.966-1.796c3.277-6.289 5.657-12.536 7.659-19.329l.905-3.012c2.406-8.21 4.181-16.407 5.47-24.863-7.622 1.39-15.044 3.278-22.5 5.375l-3.223.883c-11.635 3.214-11.635 3.214-22.277 8.742l-.25-2.59c-.862-3.918-2.53-6.71-4.75-9.973l-1.2-1.813c-3.6-5.415-7.312-10.756-11.05-16.077C514 406 514 406 513 404z"/><path fill="#1c80ca" d="M408 431q1.724 5.091 3.438 10.188l.986 2.908.947 2.822.873 2.587c.752 2.483 1.29 4.944 1.756 7.495l-2.273 1.504-3.102 2.058-1.665 1.102a239 239 0 0 0-9.71 6.836c-6.02 4.238-12.56 7.354-19.187 10.514-1.997.955-3.984 1.93-5.97 2.908-14.755 7.189-29.359 11.306-45.788 11.492l-3.253.059c-3.392.059-6.785.106-10.177.152l-6.945.117q-8.465.142-16.93.258c2.924.836 5.54 1.133 8.578 1.158l2.733.03 2.939.023 6.223.086c3.253.04 6.507.078 9.76.104 23.35.207 23.35.207 32.767 3.599l2.323.802c2.218.814 4.383 1.702 6.552 2.635l2.38 1.013c11.95 5.233 24.691 11.147 34.745 19.55 2.571 1.8 5.191 3.524 7.813 5.25A2969.168 2969.168 0 0 0 415 533c-.865 4.833-2.188 9.525-3.501 14.25l-.684 2.508-.66 2.383c-.198.717-.395 1.434-.6 2.172C409 556 409 556 408 557c-23.179 4.975-47.629 6.08-71 2q-2.189-.285-4.379-.555c-32.367-4.166-62.653-19.313-86.033-41.926a356 356 0 0 0-5.447-5.074l-4.016-3.695-1.875-1.716c-4.066-3.773-7.732-7.747-11.25-12.034 3.537-3.617 7.099-7.138 10.938-10.437 2.78-2.391 5.383-4.87 7.937-7.5C286.983 431.527 348.481 423.347 408 431"/><path fill="#1a7fcb" d="M511 210c4.637 1.68 7.5 4.107 10.875 7.625l1.603 1.638c3.414 3.514 6.725 7.103 9.897 10.839a136 136 0 0 0 3.438 3.859c21.502 23.323 34.596 51.48 39.744 82.584.286 1.582.612 3.158.99 4.72 1.75 7.368 1.722 14.667 1.659 22.192-.018 2.209-.02 4.418-.02 6.627-.032 13.446-.646 26.674-3.186 39.916l-27 9-.629-1.871c-1.678-4.614-3.407-8.465-6.558-12.254-15.5-18.878-27.746-46.915-28.094-71.27l-.056-2.993c-.079-4.213-.147-8.427-.215-12.64q-.08-4.62-.167-9.242l-.04-2.91-.052-2.67-.038-2.362c.04-1.811.04-1.811-1.151-2.788l-.028 3.893c-.04 4.837-.107 9.673-.18 14.51q-.041 3.12-.063 6.24c-.09 12.415-.647 23.56-4.729 35.357l-.87 2.64a147 147 0 0 1-2.442 6.548l-.896 2.28c-2.245 5.549-4.925 10.686-8.116 15.759-1.327 2.196-2.437 4.324-3.535 6.632-2.114 4.298-4.792 7.979-7.704 11.766-2.692 3.517-5.142 6.744-7.027 10.773C475 397 475 397 473.156 398.016c-2.976-.022-4.964-1.007-7.656-2.266-6.05-2.675-12.064-4.305-18.5-5.75-2.532-11.126-2.396-22.275-2.375-33.625v-3.026c.027-15.777.893-30.905 4.375-46.349l.501-2.312c1.915-8.618 4.834-16.665 8.499-24.688l.925-2.11c9.691-22.075 23.518-39.73 40.637-56.577l3.346-3.319Q506.946 213.99 511 210"/><path fill="#1c80cb" d="m646.688 427.688 2.45.005C697.94 427.877 741.904 441.345 778 475a717 717 0 0 0 4.063 3.5c4.534 3.945 8.725 8.217 12.937 12.5l4 4c-22.443 23.116-43.648 42.594-74.147 54.286-1.587.611-3.162 1.25-4.736 1.894-32.7 12.9-70.182 11.805-104.117 5.82-3.354-8.22-6.078-16.328-8-25l2.375-1.062c2.901-1.451 5.483-3.184 8.125-5.063 24.694-17.518 48.255-29.677 78.977-30.191l3.185-.063q4.982-.096 9.963-.183l6.8-.131q8.287-.16 16.575-.307c-7.127-.73-14.2-1.09-21.36-1.176l-2.542-.036a1186 1186 0 0 0-10.46-.114c-14.752-.09-28.137-1.736-41.7-7.924l-1.981-.903c-12.119-5.612-23.528-12.29-34.863-19.331C614.319 461.2 614.319 461.2 607 458l1.188-3.375c1.946-5.793 3.516-11.69 5.098-17.591 1.609-5.929 1.609-5.929 2.714-7.034 10.148-2.293 20.349-2.36 30.688-2.312"/><path fill="#fbc62d" d="m402 574-.805 3.148q-1.375 5.42-2.703 10.852-.61 2.471-1.238 4.938c-1.373 5.909-1.196 11.08-.254 17.062 5.916 1.644 10.69.105 16.438-1.437 5.991-1.59 11.34-2.914 17.562-2.563l-.225 1.867c-.7 6.805-.822 13.49-.732 20.324l.031 2.78c.045 3.83.094 7.658.173 11.487.325 16.744-1.189 27.982-13.126 40.515-6.496 6.18-13.238 9.038-22.183 9.402-5.496.275-8.608 1.784-12.903 5.152-7.09 5.13-16.67 4.438-25.035 3.473-5.968-1.73-10.798-4.53-14-10l-2-6h-20v-16l-5-2c-5.218-3.94-8.811-8.52-10-15-.654-7.263-.223-13.347 2.387-20.148 1.307-3.946-.279-6.619-1.95-10.227-2.462-6.209-1.688-11.596.333-17.809C310.9 594.36 317.294 586.555 326 581l1.98-1.27c4.626-2.79 8.252-3.868 13.598-3.812l2.733.02 2.939.035 6.223.037q4.88.035 9.76.086c15.292.34 15.292.34 30.4-1.66 2.821-.52 5.505-.502 8.367-.436"/><path fill="#10438d" d="m646.688 427.688 2.45.005C697.94 427.877 741.904 441.345 778 475a717 717 0 0 0 4.063 3.5c4.534 3.945 8.725 8.217 12.937 12.5l4 4c-22.443 23.116-43.648 42.594-74.147 54.286-1.587.611-3.162 1.25-4.736 1.894-32.7 12.9-70.182 11.805-104.117 5.82-3.354-8.22-6.078-16.328-8-25l2.563-1.187c2.578-1.36 4.448-2.553 6.687-4.313 3.51-2.592 6.955-3.573 11.137-4.684 3.577-1.117 6.727-2.817 9.996-4.632 7.41-3.351 14.487-3.495 22.492-3.434l3.164-.023 3.016.007 2.734.007C672 514 672 514 674 516c-4.655 1.837-8.983 2.392-13.926 2.754-2.062.028-2.062.028-3.074 1.246-2.1.276-4.206.52-6.312.75-12.766 1.753-23.743 7.042-32.688 16.25h-2v2c1.983.716 3.99 1.364 6 2l2.385.761c8.283 2.372 16.056 2.67 24.595 2.575 2.253-.023 4.505-.02 6.758-.014 12.591-.023 25.115-.925 37.324-4.197l1.975-.526q2.005-.535 4.006-1.08c1.914-.508 3.842-.965 5.77-1.421 9.37-2.275 17.654-5.74 26.187-10.098l2.316-1.167c9.295-4.697 18.273-9.566 26.818-15.546 4.332-2.988 8.733-5.874 13.116-8.787l5.578-3.719L783 495c-26.273-18.441-52.938-34.896-84-44l-2.347-.699C672.51 443.21 643.704 439.881 619 446l-3 2v2a373 373 0 0 0 6 4l1.852 1.977c2.469 2.325 4.622 3.293 7.773 4.523l3.219 1.27L638 463l2.656 1.137c4.999 2.127 9.749 3.514 15.117 4.37 2.328.515 4.147 1.344 6.227 2.493v1c-4-.082-8-.194-12-.312l-3.41-.069c-6.564-.211-11.586-.958-17.59-3.619l-3.437-.812c-4.051-1.35-6.937-3.354-10.407-5.79-2.595-1.683-5.167-2.632-8.156-3.398l1.188-3.375c1.946-5.793 3.516-11.69 5.098-17.591 1.609-5.929 1.609-5.929 2.714-7.034 10.148-2.293 20.349-2.36 30.688-2.312"/><path fill="#12448e" d="M408 431q1.724 5.091 3.438 10.188l.986 2.908.947 2.822.873 2.587c.752 2.483 1.29 4.944 1.756 7.495q-2.02 1.453-4.062 2.875l-2.286 1.617c-3.14 1.786-6.165 2.578-9.652 3.508q-3.533 1.311-7.062 2.625c-7.448 2.64-14.027 2.924-21.938 2.375 2.752-3.655 6.833-4.438 11-5.75 7.41-2.463 13.672-5.608 20-10.25l2.23-1.52c2.053-1.453 2.053-1.453 2.77-4.48-34.377-10.584-74.27-2.6-106.348 11.438a270 270 0 0 1-8.523 3.457c-4.9 1.954-9.514 4.242-14.129 6.793l-2.516 1.38c-8.92 5.003-17.424 10.646-25.902 16.357l-3.207 2.145-2.852 1.93c-2.257 1.342-3.958 2.06-6.523 2.5v2l2.598.75c3.687 1.355 6.562 3.088 9.84 5.25l1.833 1.198a577 577 0 0 1 9.342 6.267c18.883 12.874 39.483 24.608 62.157 29.043 1.833.404 3.644.911 5.445 1.445C351.238 546.321 380.948 548.1 403 538c3.448-1.535 5.11-2 9-2v-3h3c-.864 4.833-2.187 9.525-3.5 14.25l-.684 2.508-.66 2.383c-.198.717-.395 1.434-.6 2.172C409 556 409 556 408 557c-23.179 4.975-47.629 6.08-71 2q-2.189-.285-4.379-.555c-32.367-4.166-62.653-19.313-86.033-41.926a356 356 0 0 0-5.447-5.074l-4.016-3.695-1.875-1.716c-4.066-3.773-7.732-7.747-11.25-12.034 3.537-3.617 7.099-7.138 10.938-10.437 2.78-2.391 5.383-4.87 7.937-7.5C286.983 431.527 348.481 423.347 408 431"/><path fill="#14599d" d="M511 432c2.652 2.652 3.296 5.63 4.375 9.125 1.354 4.262 2.715 8.379 4.875 12.313 2.01 4.092 2.428 7.056 2.75 11.562l1.484-.996c6.056-3.853 12.351-6.876 18.891-9.817l2.667-1.202c3.633-1.613 7.067-3.118 10.958-3.985-1.562 4.04-3.342 7.959-5.187 11.875l-1.86 3.965-.967 2.058c-1.647 3.51-3.285 7.025-4.923 10.54l-1.778 3.808L541 484l3.813.563c6.422 1.255 12.408 3.617 18.497 5.96 3.878 1.485 7.558 2.865 11.69 3.477v2l-1.687.332c-4.47.929-8.667 2.062-12.926 3.738-3.235 1.26-6.497 2.441-9.762 3.618l-3.648 1.324C544 506 544 506 542 506q2.621 6 5.25 12l1.488 3.41c2.111 4.813 4.223 9.6 6.621 14.278C557 539 557 539 557 541a87 87 0 0 1-8.672-3.82l-2.135-1.075L544 535l-4.14-2.07L524 525l-.516 1.617c-1.337 4.111-2.765 8.14-4.422 12.133-2.1 5.112-3.631 10.344-5.132 15.66C513 557 513 557 511 558l-.629-2.21c-2.302-7.804-5.049-15.326-8.084-22.872C500 527.196 500 527.196 500 525l-9.3 4.649a2921 2921 0 0 0-12.686 6.368q-2.61 1.316-5.221 2.635C470 540 470 540 467 541c1.103-2.94 2.345-5.654 3.813-8.437 2.491-4.882 4.154-10.028 5.949-15.196 1.466-3.988 3.221-7.633 5.238-11.367l-2.664-.223c-6.123-.877-11.898-3.18-17.711-5.214l-3.637-1.237-3.449-1.197-3.15-1.092C449 496 449 496 448 494l2.027-.664c4.815-1.59 9.618-3.195 14.38-4.938l2.273-.825q2.225-.81 4.443-1.642c3.8-1.38 6.855-2.061 10.877-1.931q-2.478-5.604-4.962-11.206l-1.685-3.806q-1.216-2.748-2.435-5.496l-1.476-3.332a157 157 0 0 0-3.124-6.44C467 451 467 451 467 449c3.766 1.468 7.437 3.088 11.105 4.785l3.479 1.608c1.19.55 2.378 1.102 3.603 1.67l3.64 1.681c8.836 4.087 8.836 4.087 11.173 5.256l.375-2.812C501 458 501 458 503 455c.525-1.548 1-3.113 1.438-4.687 1.808-6.265 4.108-12.273 6.562-18.313"/><path fill="#10438e" d="M552 593c5.443.355 10.087 2.004 15.156 3.965 3.25 1.183 6.511 2.115 9.844 3.035 3.79 27.237 3.386 55.034-2 82l-.47 2.39C569.87 707.244 559.893 730.941 545 749l-2.457 3.063C533.486 763.113 523.189 773.008 513 783c-3.391-1.47-5.621-3.364-8.23-5.965-.8-.794-1.598-1.589-2.42-2.408l-2.538-2.564-2.6-2.62c-5.81-5.9-11.18-11.867-16.212-18.443l-2.293-2.672c-5.895-7.086-10.257-14.658-14.52-22.828l-1.633-3.127c-5.626-11.054-9.827-22.26-12.741-34.31l-.749-2.936c-3.506-14.205-4.365-27.718-4.27-42.28.019-2.935.02-5.87.02-8.806q.007-2.82.018-5.639l.003-2.639c.032-4.064.217-7.79 1.165-11.763q.324-3.653.563-7.312l.253-3.801L447 600c14.688-6.562 14.688-6.562 22-6-.42 2.85-.978 4.96-2.375 7.5-4.905 10.565-5.077 21.478-4.961 32.892.023 2.473.02 4.944.014 7.417.023 13.596 1.178 26.396 5.2 39.468.808 2.68 1.54 5.327 2.212 8.04 2.482 9.881 5.838 18.584 10.728 27.517 1.288 2.36 2.54 4.739 3.791 7.12 5.122 9.637 10.62 18.66 17.16 27.392 2.167 2.913 4.267 5.872 6.356 8.841l2.258 3.168C511 766 511 766 511 769h2l.777-2.151c1.32-3.076 2.926-5.645 4.785-8.427l2.15-3.242 1.133-1.696c23.186-34.523 23.186-34.523 35.69-73.761.677-3.968 1.733-7.82 2.781-11.703 1.985-8.767 1.844-17.519 1.809-26.457l-.006-2.16c.685-19.706.685-19.706-4.119-38.403l-1-3c-2.015-.733-2.015-.733-4-1v-2l-2-1z"/><path fill="#10438d" d="M511 210c4.637 1.68 7.5 4.107 10.875 7.625l1.603 1.638c3.414 3.514 6.725 7.103 9.897 10.839a136 136 0 0 0 3.438 3.859c21.502 23.323 34.596 51.48 39.744 82.584.286 1.582.612 3.158.99 4.72 1.75 7.368 1.722 14.667 1.659 22.192-.018 2.209-.02 4.418-.02 6.627-.032 13.446-.646 26.674-3.186 39.916l-27 9q-1.443-3.78-2.875-7.562l-.816-2.135c-2.737-7.243-4.582-13.529-4.309-21.303 6.202 5.515 7.558 14.725 8.996 22.531.793 2.716.793 2.716 3.602 3.813L556 395c4.713-13.904 6.554-27.586 6.375-42.187l-.018-2.175c-.432-44.46-18.31-80.075-42.771-116.286C513 224.586 513 224.586 513 222h-2l-.82 2.208c-1.145 2.71-2.454 4.995-4.051 7.46l-1.723 2.677-1.844 2.843-3.828 5.984q-2.639 4.126-5.29 8.244c-14.198 22.121-23.76 44.801-29.428 70.42l-.523 2.36c-1.207 6.86-1.65 13.653-1.661 20.609l-.01 2.438a1650 1650 0 0 0-.007 5.067c-.002 2.552-.02 5.103-.04 7.655-.061 16.543-.061 16.543 5.225 32.035l3 2v2h4v2c-3.747-.384-6.758-1.268-10.125-2.875-5.423-2.54-11.06-3.797-16.875-5.125-2.532-11.126-2.396-22.275-2.375-33.625v-3.026c.027-15.777.893-30.905 4.375-46.349l.501-2.312c1.915-8.618 4.834-16.665 8.499-24.688l.925-2.11c9.691-22.075 23.518-39.73 40.637-56.577l3.346-3.319Q506.946 213.99 511 210"/><path fill="#fdfdfb" d="M690 592c4.988 3.132 9.709 8.144 11.61 13.82 1.014 5.664 1.854 12.243-.774 17.516-4.976 6.048-10.37 6.905-17.836 7.664l1.977.848c6.68 3.064 11.671 6.448 15.023 13.152.683 4.79.605 8.771-2.125 12.875-3.455 4.113-6.492 5.882-11.937 6.438-6.456.234-10.988.266-15.938-4.313a281 281 0 0 1-5-5l-2-1 .875 1.73c3.23 7.053 4.29 13.553 3.125 21.27-1.568 3.805-3.747 6.2-7.25 8.438-6.807 1.392-12.65 1.177-18.75-2.438-3.746-3.593-6.829-7.265-9-12l-2.062 2c-3.705 2.522-5.53 2.619-9.938 2-7.558-3.93-11.423-9.707-14.27-17.492-2.203-7.564-.319-13.639 3.27-20.508 4.79-7.89 11.207-13.069 20-16a85 85 0 0 1 5-.125l2.625-.008C639 621 639 621 642 622l-.21-2.71c-.454-10.12 1.287-15.83 8.038-23.317C661.621 584.635 676.042 584.47 690 592M364 590l2.172 1.184C373.038 595.25 377.445 600.89 381 608c.071 2.374.084 4.75.063 7.125l-.028 3.883L381 622l2-1c9.79-1.386 17.354 1.758 25.137 7.605 6.7 6.12 10.115 13.28 10.55 22.332-.312 8.425-3.366 14.82-9.375 20.688-3.448 2.05-6.066 2.495-10 2.438l-2.449-.028L395 674l-2-4h-2l-.125 2.563c-1.488 5.847-4.943 9.239-10 12.375-5.092 1.803-10.58 1.855-15.875 1.062-3.978-1.924-6.363-4.938-8-9-1.121-8.656.822-15.998 4-24l-1.25 1.39c-6.148 6.533-11.144 9.75-20.25 10.298-5.982-.16-8.97-1.735-13.11-5.961-3.485-4.329-2.925-9.409-2.39-14.727 2.822-5.861 7.307-9.953 13.375-12.312L340 631l-1.793-.332c-8.983-1.803-8.983-1.803-12.207-4.668-3.198-4.845-5.94-10.002-5.473-15.937C322.535 601.3 327.684 595.017 335 590c8.622-4.707 20.522-4.891 29 0M379 304c7.255 2.91 11.245 8.374 15 15l1.563-2c2.437-2 2.437-2 5.625-2.625 6.12 1.003 10.333 3.916 14.496 8.465 4.696 6.931 4.421 15.18 3.316 23.16-3.24 9.433-9.48 16.471-18.312 20.938-6.645 2.791-12.78 2.982-19.688 1.062l.14 2.527c.265 8.238-.126 14.707-5.577 21.18-7.774 7.381-16.855 10.092-27.351 9.95-7.812-.424-12.953-3.178-18.298-8.884-5.546-6.768-7.399-12.074-7.226-20.828.587-5.533 2.769-8.48 6.812-12.32 5.044-2.342 9.995-2.447 15.5-2.625l-1.977-.629c-7.036-2.48-11.634-5.593-15.023-12.371-.93-10.314-.93-10.314 1.688-15.062 4.326-3.626 7.251-5.54 13.136-5.286 8.41 1.344 14.352 6.524 20.176 12.348l-.84-1.828-1.098-2.422-1.09-2.39c-2.21-5.363-2.627-10.603-1.972-16.36 4.441-9.047 11.631-10.43 21-9M657.188 305.125c6.198 4.133 6.198 4.133 7.812 7.875 1.156 8.292.522 14.934-4 22l1.574-1.426 2.114-1.887 2.074-1.863c4.427-3.608 7.446-5.243 13.238-5.199l3.063-.023c5.099.691 8.81 3.508 11.988 7.527 1.923 3.791 1.558 7.762.949 11.871-1.668 4.742-3.756 7.324-8 10-2.958 1.158-5.948 2.122-9 3l2.379.262c6.935.927 11.412 1.982 16.621 6.738 3.467 5.27 2.74 11.993 2 18-1.432 3.6-3.373 6.176-6 9l-1.793 1.96c-5.938 5.804-13.385 9.079-21.707 9.54-8.185-.426-15.804-3.669-21.5-9.5-4.939-6.001-7.285-10.877-7.125-18.812l.055-3.52L642 368l-2 1c-8.726.888-15.801.247-23-5-7.921-7.281-12.173-15.692-13.375-26.312.744-7.32 2.782-13.701 8.188-18.875 2.865-2.216 4.207-2.817 7.875-3.5 3.8.788 5.623 1.916 8.312 4.687v2h2l.25-2.625c1.28-5.762 3.915-9.055 8.813-12.187 5.922-3.513 11.604-4.364 18.125-2.063"/><path fill="#f8b405" d="M277.938 378.75c4.388 4.788 4.431 8.824 4.316 15.145-.784 9.586-5.421 16.696-12.14 23.353-3.665 3.038-7.859 4.67-12.239 6.44-7.964 3.25-7.964 3.25-14.875 8.312-2.81-33.012-2.81-33.012 8-45.988 6.89-6.931 17.524-12.87 26.938-7.262"/><path fill="#fab806" d="M625.563 726.375c2.022 1.438 3.677 2.865 5.437 4.625.952 5.96.037 11.8-3 17-4.842 6.506-9.485 10.943-17 14l-1.823 1.082c-2.975 1.255-5.47 1.143-8.693 1.113l-3.789-.02-3.945-.05-3.992-.027q-4.879-.036-9.758-.098l1.008-1.957c2.441-4.798 4.654-9.514 6.43-14.606 4.272-11.244 9.539-17.6 20.437-22.812 6.64-1.328 12.746-1.919 18.688 1.75"/><path fill="#f8b605" d="M781 557c2.11 4.219 1.31 9.669 1.35 14.31q.025 2.038.082 4.077c.327 11.585-1.198 21.341-9.245 30.113-5.992 5.377-11.632 8.398-19.847 8.094-3.564-.905-5.146-2.885-7.281-5.77-3.156-5.437-2.648-11.759-2.059-17.824 2.488-8.581 8.555-15.79 16.205-20.3a251 251 0 0 1 10.143-5.25c4.185-2.053 7.603-3.8 10.652-7.45"/><path fill="#f8b705" d="m243 558 1.504 1.207c3.728 2.907 7.088 5.16 11.516 6.902 9.838 4.425 17.901 10.793 22.418 20.703 2.362 6.61 2.768 13.118.187 19.688-3.561 5.479-3.561 5.479-6.625 6.5-6.422.799-10.962.22-16.258-3.586-7.518-6.102-13.925-14.843-14.992-24.73-.218-8.915 1.162-17.853 2.25-26.684"/><path fill="#f8b406" d="M755.79 376.617c7.956 1.378 14.905 5.92 19.683 12.371 1.275 1.974 2.452 3.923 3.527 6.012l1.125 2.148c1.272 4.147 1.127 8.103 1.063 12.414l-.02 2.685c-.077 6.615-.42 13.178-1.168 19.753l-1.477-1.066c-4.677-3.258-9.443-5.927-14.586-8.372-10.09-4.91-15.672-10.092-19.937-20.562-1.101-3.303-1.202-5.898-1.25-9.375l-.078-3.398c.456-4.48 2.422-6.986 5.015-10.54 2.732-1.993 4.746-2.257 8.102-2.07"/><path fill="#f9b606" d="M419.02 725.96c4.801 2.261 8.553 4.947 11.98 9.04l1.453 1.566c4.55 5.32 6.393 11.255 8.371 17.848 1.117 3.406 2.49 6.429 4.176 9.586a868 868 0 0 1-13.375.313l-3.793.126c-9.711.128-15.941-1.706-23.637-7.58-6.223-6.34-10.154-12.029-10.882-21.047.2-3.582.812-5.768 3.25-8.437 6.303-4.497 15.41-3.657 22.457-1.414"/><path fill="#fab604" d="m446 227 2 1-2.25 1.938c-4.768 4.794-6.512 11.356-8.625 17.625-3.555 9.853-9.147 15.117-18.465 19.55-3.164 1.055-5.828 1.188-9.16 1.2l-3.344.05c-4.702-.54-8.14-2.744-11.156-6.363-1.619-4.857-1.939-8.783.059-13.5 4.78-8.5 12.264-16.065 21.782-19.084 2.667-.514 5.234-.616 7.948-.697l3.352-.114 6.992-.21 3.344-.114 3.065-.092c2.462-.034 2.462-.034 4.458-1.189"/><path fill="#f9b605" d="M577 228c4.418-.006 8.833.054 13.25.125l3.742-.008c11.223.236 21.062 3.747 29.008 11.883 4.672 6.24 7.682 10.947 7 19-2.08 4.326-4.282 6.872-8.883 8.531-7.224 1.6-14.622 1.117-21.117-2.531-8.995-5.971-13.259-14.317-15.75-24.594-1.704-4.643-4.39-8.399-7.25-12.406"/><path fill="#4f4d68" d="M591 677c2.248 2.052 3.002 3.007 4 6-.033 1.936-.067 3.873-.11 5.809.117 2.322.618 4.223 1.298 6.441L597 699l-1.344 1.68c-2.458 3.443-2.665 7.078-3.343 11.195-1.768 9.461-5.152 16.057-10.313 24.125a393 393 0 0 0-3.062 5.813c-2.833 5.195-6.144 9.658-9.938 14.187l-2.516 3.074c-5.86 7.072-12.07 13.79-18.484 20.364l-2.212 2.316-2.1 2.117-1.864 1.904C540 787 540 787 537.77 786.695L536 786v-2l-7 5c0-3 0-3 1.363-4.437l1.95-1.563c25.072-21.202 43.959-50.673 52.75-82.312l.775-2.751c1.935-6.935 3.672-13.892 5.162-20.937"/><path fill="#504f68" d="M801 513v3l.5 3.063c-1.436 11.307-15.398 21.222-23.93 27.863-2.637 2.128-5.095 4.384-7.57 6.699-4.683 4.241-9.44 7.402-15 10.375l-1.726.965C743.098 570.635 733.4 573.772 722 576q-2.596.616-5.187 1.25c-5.91 1.162-9.028 1.44-14.188-1.75-1.217-.82-2.429-1.65-3.625-2.5 2.59-2.59 4.279-2.557 7.875-3.187 15.617-3.2 30.167-9.214 44.125-16.813l1.85-.988c11.765-6.306 22.106-13.907 31.908-22.957a145 145 0 0 1 5.93-5.117c3.862-3.265 7.077-7.064 10.312-10.938"/><path fill="#494866" d="M712.477 412.828c4.766.064 9.254.903 13.898 1.922l2.539.553c10.598 2.395 18.403 6.153 27.086 12.697l2.945 2.172a773 773 0 0 1 14.805 11.265l2.484 1.934L778 445v2l1.633.676c3.136 1.754 5.63 4.076 8.242 6.512l1.61 1.485c3.81 3.556 7.195 7.309 10.515 11.327l2 1v2h2q.543 2.185 1.063 4.375l.597 2.46C806 479 806 479 805 481l-2.125-2.379c-4.712-5.234-9.374-10.364-14.807-14.87-2.084-1.765-4.082-3.603-6.091-5.454-5.172-4.601-10.713-8.478-16.477-12.297l-3.182-2.114C753.86 438.366 745.32 433.849 736 430l-2.734-1.184A157 157 0 0 0 726 426l-3.375-1.242c-9.095-3.203-18.113-5.22-27.625-6.758v-2c1.39-.2 1.39-.2 2.809-.402l3.629-.536 3.62-.527c3.58-.651 3.611-1.519 7.419-1.707"/><path fill="#4b4964" d="M218 509c3.48 2.716 6.498 5.46 9.375 8.813C249.848 543.94 284.941 564.942 319 571v4c-8.518 4.26-25.087 1.22-34.066-1.323C273.786 569.775 264.052 561.354 255 554l-2.363-1.895c-1.594-1.312-3.126-2.699-4.637-4.105v-2l-1.71-.75c-4.699-2.565-8.41-6.608-12.29-10.25l-2.875-2.676-2.75-2.636-2.54-2.426C224 525 224 525 224 521h-2l-1-8h-2z"/><path fill="#4a4967" d="m529 204 3 2c3.125.167 3.125.167 6 0v2l2.563.5c4.114 1.796 5.897 3.976 8.69 7.398 1.633 1.965 3.34 3.715 5.184 5.477C557 224 557 224 557 226h2c1.375 1.363 1.375 1.363 3 3.313 2.04 2.432 4.076 4.763 6.332 7 7.502 7.56 11.814 15.979 16.487 25.454 1.166 2.205 2.466 4.24 3.849 6.315 4.019 6.303 4.662 13.026 5.02 20.356l.118 2.25c.318 7.065.35 13.791-2.806 20.312h-1l-.594-2.91c-8.414-39.283-27.483-70.049-56.24-97.8-1.425-1.394-2.8-2.838-4.166-4.29z"/><path fill="#464765" d="M490 208h2c-1.368 3.168-2.82 4.915-5.5 7.063-28.678 24.514-42.808 58.493-52.5 93.937l-.875-1.812c-1.172-2.381-1.172-2.381-3.125-5.188-1.09-11.288.557-21.766 5.52-31.91a132 132 0 0 0 3.117-7.024c4.651-11.29 10.265-19.143 19.05-27.691 2.406-2.471 4.542-5.052 6.688-7.75 12.783-15.74 12.783-15.74 18.547-17.535 2.426-.243 4.653-.316 7.078-.09z"/><path fill="#4b4b69" d="M433 681h1l.595 2.228q1.356 5.074 2.717 10.147c.31 1.156.618 2.313.936 3.504 3.076 12.77 3.076 12.77 8.002 24.871 1.465 2.778 2.886 5.544 4.207 8.395 7.28 15.496 17.73 28.54 29.105 41.228 2.205 2.495 4.32 5.058 6.438 7.627-2.5 1.438-2.5 1.438-6 2-3.102-1.87-5.484-4.417-8-7l-2.043-1.973c-3.936-3.83-7.634-7.821-11.191-12.004a80 80 0 0 0-3.594-3.859c-17.375-17.869-24.978-41.753-25.402-66.133C430 688 430 688 432 686c.648-2.57.648-2.57 1-5"/><path fill="#2b8bc6" d="M401 463c2.063.438 2.063.438 4 1-6.921 6.152-14.534 10.045-22.827 13.966a492 492 0 0 0-6.528 3.179c-8.364 4.09-16.59 7.54-25.645 9.855l-2.496.68c-7.431 1.781-14.913 1.502-22.504 1.32 1-2 1-2 3.73-2.965 1.141-.32 2.282-.642 3.457-.973 6.53-1.843 12.053-4.505 17.813-8.062h-7l-.312-1.937L342 477l-3-1c3.317-2.212 4.523-2.278 8.402-2.379l3.198-.103 3.337-.08q3.264-.09 6.528-.192l2.925-.072c2.366-.158 4.378-.381 6.61-1.174l1-2c2.036-.184 4.081-.27 6.125-.312 6.868-.375 18.738-1.551 23.875-6.688"/><path fill="#3595cc" d="M509 308h2c1.04 20.382-5.749 40.208-16.453 57.473-1.325 2.164-2.429 4.288-3.485 6.59-2.61 5.44-6.433 10.145-10.062 14.937-1.317-3.952-.41-7.089.375-11.062 1.187-6.31 2.116-12.53 2.625-18.938 2.571 2.571 2.801 4.605 3.625 8.125.26 1.096.52 2.191.79 3.32L489 371c3.72-14.447 3.72-14.447 2-29-.988-20.715-.988-20.715 2.543-24.773L495 316q1.255 3.185 2.5 6.375l1.406 3.586C500 329 500 329 500 331h2l.188-2.062c.804-2.908 1.45-3.835 3.312-6.063 3.456-4.492 3.39-9.38 3.5-14.875"/><path fill="#3591c9" d="M514 284h1l.06 2.12c.096 3.231.206 6.462.315 9.692.03 1.1.062 2.2.094 3.334.47 13.704.47 13.704 5.156 26.416C523 329.853 523 329.853 523 332h2l.621-2.336.817-3.039.808-3.023C528 321 528 321 529 319h2l.438 3.438c.174 3.37.174 3.37 1.562 4.562.076 2.669.09 5.312.063 7.98l-.012 2.442c-.016 3.457-.044 6.915-.072 10.372q-.025 3.78-.042 7.561l-.025 2.35c-.019 4.217.25 8.14 1.088 12.295h2l.184-2.3.254-3.012c.08-.987.162-1.973.246-2.989C537 359 537 359 538 356h2v26c-14.364-17.956-26.24-44.08-26.098-67.336l.005-2.665c.005-2.791.018-5.583.03-8.374q.009-2.85.014-5.7.017-6.962.049-13.925"/><path fill="#2e8ec9" d="m699.125 495.938 3.477.013q4.2.018 8.398.049v1l-1.86-.003c-16.133-.16-16.133-.16-30.14 7.003h-2v2l2.688.813c3.12 1.118 5.644 2.225 8.312 4.187v3l-3.406.044c-4.217.059-8.435.136-12.652.218a977 977 0 0 1-5.45.084c-11.946.155-23.141.312-33.867 6.279-3.23 1.783-5.971 2.794-9.625 3.375 4.02-4.444 8.371-7.297 13.563-10.25l2.499-1.431c6.062-3.406 12.236-6.498 18.563-9.381l2.436-1.12c12.611-5.574 25.446-5.983 39.064-5.88"/><path fill="#3b96cb" d="M533 617c1.282 3.42.713 6.274.238 9.82-.366 3.356-.292 6.674-.23 10.047l.05 4.434q.045 3.429.113 6.858c.167 8.677.192 16.661-3.171 24.841h-2l-3-14h-2l-.75 2c-1.25 3-1.25 3-2.24 4.676-3.272 5.653-3.474 10.334-3.197 16.761q.078 2.685.144 5.372l.093 2.368C517 692 517 692 516 693a123 123 0 0 0-.562 5.563l-.254 3.066L515 704h-1q-.149-7.919-.22-15.839-.03-2.684-.082-5.367c-.222-11.664.491-21.706 4.302-32.794l.966-2.823a180 180 0 0 1 2.846-7.302l1.03-2.54C525.76 630.278 529.15 623.593 533 617"/><path fill="#34a1d2" d="M315 496c4.25-.088 8.5-.14 12.75-.187l3.598-.077c11.32-.092 21.17 2.243 31.527 6.702l2.38 1.012C393.204 515.69 393.204 515.69 403 526c-4.248-.654-7.778-2.115-11.687-3.875-4.992-2.21-9.948-4.079-15.227-5.484C374 516 374 516 372.205 514.97c-2.689-1.183-4.634-1.183-7.564-1.13l-3.133.033-3.258.064c-6.863.113-13.458.121-20.25-.937v-3q2.435-1.005 4.875-2l2.742-1.125C348 506 348 506 350 506v-2l-3.062-.312c-3.397-.594-5.902-1.51-9.004-2.926-7.208-2.84-15.286-3.21-22.934-3.762z"/><path fill="#268dca" d="M625 467c4.32.386 7.52.803 11.576 2.473 4.566 1.731 8.89 2.177 13.736 2.476l2.59.19c2.698.194 5.398.371 8.098.548q2.764.195 5.527.393 6.735.478 13.473.92v2l-9 1v2h-2v2l2.313-.187c3.292.23 3.476.89 5.687 3.187 1.695.782 3.394 1.557 5.129 2.246 1.72.693 3.393 1.5 5.058 2.317 4.993 2.175 10.46 2.69 15.813 3.437v1c-29.194 1.107-53.89-8.606-78-25z"/><path fill="#3798cd" d="M492 620c2.305 2.787 4.402 5.412 5.965 8.68l.978 2.042.995 2.153 1.049 2.256c3.248 7.134 5.835 14.338 8.013 21.869l.746 2.523c2.05 8.283 1.42 17.009 1.254 25.477h-1l-1-17-4-2a161 161 0 0 1-3-7l-2-1-.586 2.012c-2.586 8.77-2.586 8.77-4.414 12.988-3.577-6.2-3.137-13.058-3.098-19.992l.005-2.867c.005-3.005.018-6.01.03-9.016q.009-3.067.014-6.133.017-7.496.049-14.992"/><path fill="#f2f2e7" d="m243 558 1.504 1.207c3.728 2.907 7.088 5.16 11.516 6.902 9.838 4.425 17.901 10.793 22.418 20.703 2.362 6.61 2.768 13.118.187 19.688-3.561 5.479-3.561 5.479-6.625 6.5-6.422.799-10.962.22-16.258-3.586-7.518-6.102-13.925-14.843-14.992-24.73-.218-8.915 1.162-17.853 2.25-26.684m3 5c-.117 4.333-.188 8.666-.25 13l-.102 3.7c-.115 10.721 2.327 16.801 9.575 24.6 4.76 4.551 9.192 5.05 15.507 5.196 2.416-.305 2.416-.305 4.008-2.336 2.65-4.537 3.028-9.041 2.262-14.16-4.393-12.775-12.832-19.145-24.3-25.457-2.403-1.373-4.51-2.864-6.7-4.543"/><path fill="#f5f5ea" d="M781 557c2.11 4.219 1.31 9.669 1.35 14.31q.025 2.038.082 4.077c.327 11.585-1.198 21.341-9.245 30.113-5.992 5.377-11.632 8.398-19.847 8.094-3.564-.905-5.146-2.885-7.281-5.77-3.156-5.437-2.648-11.759-2.059-17.824 2.488-8.581 8.555-15.79 16.205-20.3a251 251 0 0 1 10.143-5.25c4.185-2.053 7.603-3.8 10.652-7.45m-8.5 8.625a153 153 0 0 1-9.125 6.438C755.604 577.26 750.347 582.06 747 591c-.873 5.37-1.123 10.82 1.625 15.688 2.923 2.846 4.346 3.063 8.375 3.312 9.27-2.993 14.985-7.975 19.875-16.125 3.488-9.212.927-21.321.125-30.875-1.813 0-3.117 1.555-4.5 2.625"/><path fill="#f2f3eb" d="M277.938 378.75c4.388 4.788 4.431 8.824 4.316 15.145-.784 9.586-5.421 16.696-12.14 23.353-3.665 3.038-7.859 4.67-12.239 6.44-7.964 3.25-7.964 3.25-14.875 8.312-2.81-33.012-2.81-33.012 8-45.988 6.89-6.931 17.524-12.87 26.938-7.262M249 395c-3.63 6.36-3.354 12.238-3.187 19.438l.04 3.373q.054 4.095.147 8.189a127 127 0 0 0 11.02-5c1.683-.85 3.392-1.65 5.105-2.437C270.813 413.84 275.828 406.298 279 397c.67-4.917.388-8.977-1.375-13.625-2.876-2.602-3.651-2.84-7.375-3.062-9.505.64-15.934 7.214-21.25 14.687"/><path fill="#f8f7ed" d="M625.563 726.375c2.022 1.438 3.677 2.865 5.437 4.625.952 5.96.037 11.8-3 17-4.842 6.506-9.485 10.943-17 14l-1.823 1.082c-2.975 1.255-5.47 1.143-8.693 1.113l-3.789-.02-3.945-.05-3.992-.027q-4.879-.036-9.758-.098l1.008-1.957c2.441-4.798 4.654-9.514 6.43-14.606 4.272-11.244 9.539-17.6 20.437-22.812 6.64-1.328 12.746-1.919 18.688 1.75m-30.973 11.078c-2.59 4.148-3.896 8.685-5.39 13.317-1.479 3.98-3.23 6.26-6.2 9.23v1c13.407.728 25.349 1.126 36.305-7.898 4.991-5.24 7.25-10.761 8.195-17.852-.195-3.355-.195-3.355-2.605-5.422-10.45-6.6-23.183-.966-30.305 7.625"/><path fill="#f5f4ec" d="M755.79 376.617c7.956 1.378 14.905 5.92 19.683 12.371 1.275 1.974 2.452 3.923 3.527 6.012l1.125 2.148c1.272 4.147 1.127 8.103 1.063 12.414l-.02 2.685c-.077 6.615-.42 13.178-1.168 19.753l-1.477-1.066c-4.677-3.258-9.443-5.927-14.586-8.372-10.09-4.91-15.672-10.092-19.937-20.562-1.101-3.303-1.202-5.898-1.25-9.375l-.078-3.398c.456-4.48 2.422-6.986 5.015-10.54 2.732-1.993 4.746-2.257 8.102-2.07m-7.665 6.633c-3.43 4.722-2.984 10.213-2.125 15.75 4.211 13.078 14.46 19.066 26 25 1.655.695 3.317 1.375 5 2 2.488-10.297 2.563-22.758-3-32-3.995-6.398-10.007-10.319-17-13-4.27-.406-5.427-.449-8.875 2.25"/><path fill="#186ba3" d="M541 506c2.545 3.107 4.085 6.202 5.629 9.902l1.447 3.448 1.486 3.587 1.499 3.577c2.014 4.815 4.01 9.636 5.939 14.486a87 87 0 0 1-8.664-3.816A241023753.137 241023753.137 0 0 1 544 535l-4.21-2.105L526 526c.388-5.006 3.025-7.68 6.375-11.125l1.5-1.59c2.336-2.467 4.706-4.9 7.125-7.285"/><path fill="#f2f1d3" d="M419.02 725.96c4.801 2.261 8.553 4.947 11.98 9.04l1.453 1.566c4.55 5.32 6.393 11.255 8.371 17.848 1.117 3.406 2.49 6.429 4.176 9.586a868 868 0 0 1-13.375.313l-3.793.126c-9.711.128-15.941-1.706-23.637-7.58-6.223-6.34-10.154-12.029-10.882-21.047.2-3.582.812-5.768 3.25-8.437 6.303-4.497 15.41-3.657 22.457-1.414M397 731c-1.207 7.896 2.832 14.586 7 21 2.742 2.762 5.455 4.43 9 6l2.2 1.012c7.929 2.975 16.472 2.249 24.8 1.988-4.03-12.31-7.835-23.925-19.687-30.562-7.284-3.295-16.797-5.197-23.313.562"/><path fill="#efecaf" d="M577 228c4.418-.006 8.833.054 13.25.125l3.742-.008c11.223.236 21.062 3.747 29.008 11.883 4.672 6.24 7.682 10.947 7 19-2.08 4.326-4.282 6.872-8.883 8.531-7.224 1.6-14.622 1.117-21.117-2.531-8.995-5.971-13.259-14.317-15.75-24.594-1.704-4.643-4.39-8.399-7.25-12.406m6 4a504 504 0 0 0 3.184 6.297c2.018 3.95 3.93 7.819 5.379 12.016 2.786 7.148 7.273 10.794 14.187 13.937 5.877 1.356 11.176 1.587 16.813-.687 2.294-1.349 2.294-1.349 3.437-2.563.904-6.226.154-9.478-3.437-14.687-5.709-7.199-12.67-11.937-21.563-14.313-3.183-.325-6.306-.289-9.5-.187l-2.492.04c-2.003.035-4.006.09-6.008.147"/><path fill="#196fac" d="m481 508 8 2v4l3 1c3.161 3.998 4.316 7.008 5 12l-2.86 1.32c-7.312 3.389-14.57 6.848-21.75 10.516C470 540 470 540 467 541c1.103-2.94 2.345-5.654 3.813-8.437 2.49-4.88 4.182-10.017 5.94-15.196 1.209-3.263 2.632-6.287 4.247-9.367"/><path fill="#f5f1c6" d="m446 227 2 1-2.25 1.938c-4.768 4.794-6.512 11.356-8.625 17.625-3.555 9.853-9.147 15.117-18.465 19.55-3.164 1.055-5.828 1.188-9.16 1.2l-3.344.05c-4.702-.54-8.14-2.744-11.156-6.363-1.619-4.857-1.939-8.783.059-13.5 4.78-8.5 12.264-16.065 21.782-19.084 2.667-.514 5.234-.616 7.948-.697l3.352-.114 6.992-.21 3.344-.114 3.065-.092c2.462-.034 2.462-.034 4.458-1.189m-44 17c-3.738 4.443-4.783 9.034-4.496 14.754.368 2.528.368 2.528 2.808 4.871 6.745 2.515 13.128 2.19 19.938-.062 10.97-5.07 14.708-17.39 19.127-27.826.736-1.743.736-1.743.623-3.737-15.765-.583-26.663-.214-38 12"/><path fill="#0f4693" d="M299 497q6.59.141 13.177.317 2.237.057 4.472.105c20.302.435 20.302.435 28.351 5.578 2.693.707 2.693.707 5 1v2c-8.804 4.236-15.683 6.92-25.266 4.008-4.693-1.725-9.233-3.592-13.546-6.133-2.587-1.521-4.77-2.515-7.563-3.5C300 499 300 499 299 497"/><path fill="#134c99" d="m611 446 5 1v3a149 149 0 0 0 6 4l1.852 1.973c2.469 2.33 4.62 3.296 7.773 4.527l3.219 1.27L638 463l2.656 1.137c4.999 2.127 9.749 3.514 15.117 4.37 2.328.515 4.147 1.344 6.227 2.493v1c-4-.082-8-.194-12-.312l-3.41-.069c-6.564-.211-11.586-.958-17.59-3.619l-3.437-.812c-4.051-1.35-6.937-3.354-10.407-5.79-2.595-1.683-5.167-2.632-8.156-3.398z"/><path fill="#0f4695" d="M705.125 497.625q2.46.045 4.922.082c3.986.066 7.969.169 11.953.293-1.44 2.882-3.287 3.136-6.242 4.348l-3.23 1.334-3.403 1.38-3.379 1.393c-14.934 6.134-14.934 6.134-21.426 3.428A171 171 0 0 1 677 506v-2c8.031-7.743 17.827-6.706 28.125-6.375"/><path fill="#0e4490" d="M500 658c3 1 3 1 4.387 3.266 4.406 10.11 5.415 19.388 1.347 29.789-.98 2.595-1.382 5.202-1.734 7.945-2.643-2.357-4.072-4.77-5.625-7.937-.425-.855-.85-1.71-1.29-2.59-3.644-8.3-2.41-17.302.716-25.598.698-1.64 1.443-3.26 2.199-4.875"/><path fill="#0e458e" d="m342 478 1 3 9-1c-14.63 11.704-29.079 11.808-47 10v-2c12.673-6.761 22.418-10.499 37-10"/><path fill="#124b97" d="M523 659h2c3.506 10.863 6.518 20.229 1.148 30.95-1.589 2.837-3.161 5.467-5.148 8.05h-2c-3.235-10.515-5.727-21.41-.49-31.608A130 130 0 0 1 523 659"/><path fill="#4da6d3" d="M401 463c2.063.438 2.063.438 4 1-15.577 13-15.577 13-22 13v-2l-1.941.621-2.622.817-2.566.808c-6.252 1.642-12.388 1.936-18.808 1.942l-2.303.037c-5.237.013-9.757-.632-14.76-2.225l-1-2c3.019-1.006 5.24-1.182 8.402-1.281l3.198-.114 3.337-.105q3.264-.103 6.528-.219l2.925-.092c2.359-.17 4.382-.4 6.61-1.189l1-2c2.036-.184 4.081-.27 6.125-.312 6.868-.375 18.738-1.551 23.875-6.688"/><path fill="#0f4792" d="M702.25 481.75a337 337 0 0 1 5.783 3.17c3.272 1.796 6.62 3.429 9.967 5.08v1c-4.354.088-8.708.14-13.062.188l-3.725.076c-6.57.053-11.437-.053-17.213-3.264l-2.398-1.062-1.977-.938-2.023-.937C676 484 676 484 675 481c9.477-5.17 17.934-4.053 27.25.75"/><path fill="#0e4691" d="m660.875 513.75 3.164-.023 3.016.007 2.734.007C672 514 672 514 674 516c-4.655 1.837-8.983 2.392-13.926 2.754-2.062.028-2.062.028-3.074 1.246-2.1.276-4.206.52-6.312.75-12.766 1.753-23.743 7.042-32.688 16.25h-2l-1 2-1-3 9-9h-3l-1 2c-2.562.625-2.562.625-5 1 3.863-4.967 7.94-6.17 13.871-7.96 3.772-1.254 7.117-2.962 10.582-4.892 7.379-3.327 14.456-3.458 22.422-3.398"/><path fill="#124b98" d="M520 295c5.02 4.276 8.487 9.532 9.457 16.09.247 7.679-1.325 13.933-4.457 20.91h-2c-5.039-8.323-7.364-15.226-6-25a122 122 0 0 1 2-5c.381-2.326.725-4.66 1-7"/><path fill="#0e4590" d="M503 294c3.622 5.433 4.343 10.51 4.313 16.938l.048 2.052c.005 5.15-1.147 8.483-3.361 13.01a605 605 0 0 0-2 5h-2c-4.112-8.68-6.966-15.676-3.812-25.062 1.785-4.268 4.236-8.11 6.812-11.938"/><path fill="#2f93cb" d="M315 496c4.25-.088 8.5-.14 12.75-.187l3.598-.077c10.966-.09 20.427 1.963 30.402 6.452l3.61 1.605L368 505v3q-3.906.504-7.812 1c-.738.095-1.476.19-2.237.29-3.005.38-5.918.71-8.951.71-2.007.499-3.981 1.075-5.965 1.66-2.31.386-3.824.047-6.035-.66q2.685-1.256 5.375-2.5l3.023-1.406C348 506 348 506 350 506v-2l-3.062-.312c-3.397-.594-5.902-1.51-9.004-2.926-7.208-2.84-15.286-3.21-22.934-3.762z"/><path fill="#0c458f" d="M380 517q3.306 1.268 6.625 2.5c4.97 1.9 9.675 4.012 14.375 6.5v1c-5.709.317-10.04-.454-15.46-2.215-3.135-.97-6.273-1.577-9.493-2.187-4.112-.807-8.204-1.698-12.297-2.598l-2.33-.504c-4.24-.936-8.322-2.034-12.42-3.496v-2c11.257-1.766 20.587-1.831 31 3"/><path fill="#f0f3e2" d="m750 377 2 1c-1.067 2.216-2.165 4.245-3.543 6.29-2.897 5.389-2.359 11.674-.648 17.433 4.363 9.768 12.333 15.218 21.613 19.953 2.6 1.335 5.087 2.796 7.578 4.324v-5l3 1v10l-3.625-2.562c-3.984-2.682-8.11-4.818-12.437-6.875C753.847 417.653 748.265 412.47 744 402c-1.101-3.303-1.202-5.898-1.25-9.375l-.078-3.398c.557-5.478 3.406-8.575 7.328-12.227"/><path fill="#eeedb0" d="M621 724v1l-10 1 7 1v1l-2.562.227c-9.358 1.084-14.578 3.27-20.688 10.398-2.098 4.046-3.313 8.174-4.668 12.516-1.43 3.779-3.246 6.023-6.082 8.859l12 1v1l11 1v1h-28l5-10c.85-2.173 1.67-4.36 2.438-6.562 4.272-11.245 9.539-17.6 20.437-22.813 4.701-.94 9.348-.778 14.125-.625"/><path fill="#f6eca2" d="M245 561c13.425 5.37 27.17 12.058 33.438 25.813 2.58 7.174 2.692 14.214-.438 21.187-2.336-3.505-2.073-4.382-1.75-8.437.118-8.09-2.78-14.492-8.008-20.625-4.62-4.331-10.077-7.33-15.605-10.36C250 567 250 567 247 564l-1 23h-1z"/><path fill="#0a4795" d="M534 617h2c3.095 14.681 5.565 29.086-2 43h-1c-.954-6.443-1.192-12.74-1.187-19.25l-.002-3.07c.05-7.084.525-13.771 2.189-20.68"/><path fill="#0f4e9a" d="M489 332h2c2.434 13.472 3.125 25.734-1 39l-2 1-.402-2.082-.536-2.73-.527-2.708c-.512-2.594-.512-2.594-1.535-5.48-.734-8.891-.05-18.9 4-27"/><path fill="#f6f5e8" d="M581 229c26.236-1.241 26.236-1.241 36 6 .922.61.922.61 1.863 1.23 4.644 3.376 8.367 8.447 9.668 14.063.242 1.893.367 3.801.469 5.707l-2 1-.883-1.941C620.84 243.92 615.581 238.699 604 234c-7.375-2.521-15.28-2.583-23-3z"/><path fill="#0c4895" d="M488 619h2c1.765 7.287 2.281 14.143 2.188 21.625l-.002 2.984c-.034 5.55-.37 10.9-1.186 16.391-2-1-2-1-3.07-3.555-4.253-13.389-2.76-24.019.07-37.445"/><path fill="#4ea6d4" d="m634 470 2.608.26q4.905.486 9.813.967 2.1.206 4.203.416A761 761 0 0 0 680 474v2l-9 1v2c-8.961.5-17.183.463-25.812-2.25l-2.008-.62c-4.013-1.373-6.31-3.079-9.18-6.13"/><path fill="#efefd1" d="M778 560c1.549 3.098.832 6.262.563 9.625l-.159 2.14q-.196 2.618-.404 5.235h-1l-1-13-3.437 2.625a179 179 0 0 1-9.25 6.5l-2.282 1.527a224 224 0 0 1-4.718 3.035c-8.778 8.778-9.286 18.603-9.313 30.313-3.301-3.301-3.236-6.581-3.375-11.062.109-8.923 3.189-14.803 9-21.438 6.427-6.142 14.739-9.762 22.66-13.611 1.697-.77 1.697-.77 2.715-1.889"/><path fill="#0b4997" d="M533 332h3c3.082 13.925 3.352 23.972 0 38h-2c-2.095-5.16-2.275-9.595-2.187-15.062l.019-2.521c.084-6.836.484-13.614 1.168-20.417"/><path fill="#e8ba3d" d="M395 379c5.514-.337 9.004.559 13.938 3l3.464 1.688L415 385v5c-3.699-1.373-6.951-3.064-10.312-5.125l-2.676-1.633L400 382l1.68 2.633 2.195 3.492 1.105 1.727c2.259 3.613 3.839 7.057 5.02 11.148h-6a3212 3212 0 0 1-3.937-8.75l-1.131-2.5-1.084-2.422-1-2.222c-.814-2.02-1.376-3.982-1.848-6.106"/><path fill="#f4f4ed" d="M397 745h4c1.063 1.54 1.063 1.54 2 3.625 3.496 5.845 8.528 8.593 15 10.375 7.598 1.473 15.299 2.278 23 3-7.407 4.196-19.172 3.205-27.223 1.195-6.204-2.851-11.69-7.757-15.777-13.195-.746-2.781-.746-2.781-1-5"/><path fill="#f4edb4" d="m277 399 1 2h2c-.893 7.595-6.304 13.292-12 18-3.263 1.857-6.648 3.283-10.125 4.688-7.964 3.25-7.964 3.25-14.875 8.312v-7h2l1-3v4l1.398-.953c3.803-2.495 7.454-4.467 11.727-6.047 8.648-3.359 12.7-8.978 16.875-17z"/><path fill="#eaebe7" d="m426.875 228.875 2.105-.012c4.112.008 7.987.34 12.02 1.137-3.01 3.01-6.461 2.295-10.5 2.375-10.653.427-17.947 2.37-25.613 10.137-2.264 1.786-4.058 2.123-6.887 2.488 4.368-7.224 10.637-12.773 18.719-15.602 3.378-.59 6.739-.542 10.156-.523"/><path fill="#e6e0a9" d="M422 728c7.57 3.312 12.581 9.251 15.79 16.879 1.169 3.183 2.154 6.385 3.105 9.64 1.074 3.383 2.435 6.356 4.105 9.481h-8v-1l-6-1v-1h9q-2.977-6.51-6-13l-1.148-2.469c-2.54-5.284-5.613-9.504-9.852-13.531l1-2h-2z"/><path fill="#c5cd9c" d="M514 670q.037 8.188.055 16.376.008 2.776.02 5.553c.048 10.412-.012 20.703-1.075 31.071-1.795-3.088-2.246-5.304-2.227-8.86v-2.912l.032-3.119.008-3.211c.011-3.383.037-6.765.062-10.148q.016-3.442.027-6.883.034-8.434.098-16.867c2-1 2-1 3-1"/><path fill="#c8d789" d="M688 493q6.878-.037 13.757-.055 2.33-.008 4.66-.02c9.918-.055 19.696.195 29.583 1.075-2.606 2.606-3.736 2.27-7.368 2.319l-3.397.06-3.68.035-3.758.059c-3.298.05-6.596.09-9.894.128-3.365.04-6.73.091-10.094.141q-9.904.143-19.809.258v-1l10-2z"/><path fill="#3f94ca" d="M492 620c4.647 5.397 4.647 5.397 5 9-.333 2.09-.333 2.09-.926 4.383-1.417 6.497-1.33 12.868-1.262 19.492l.002 3.664c-.132 5.89-.132 5.89.821 11.645L496 670l-2 3c-1.626-6.883-2.277-13.322-2.195-20.383l.008-2.85c.011-2.964.036-5.928.062-8.892q.016-3.039.027-6.078.035-7.4.098-14.797"/><path fill="#f0eed0" d="M402 244c-1.875 5.875-1.875 5.875-3 7-.316 2.26-.316 2.26-.375 4.875l-.148 2.68c.3 2.624.3 2.624 2.62 4.222 3.355 1.413 6.087 1.727 9.716 1.91l3.519.2L417 265l-1 3c-2.062.082-4.125.14-6.187.188l-3.481.105c-4.366-.384-6.816-1.994-10.082-4.793-2.578-3.094-2.523-6.546-2.473-10.43.341-3.17 1.486-5.432 3.223-8.07 3-1 3-1 5-1"/><path fill="#308bc4" d="M480 602c4.996 4.555 8.97 9.94 12 16 .07 1.874.084 3.75.063 5.625l-.028 3.04L492 629h-1l-1-10h-2l-.148 2.371-.227 3.067c-.07 1.009-.14 2.018-.21 3.058-.138.826-.274 1.653-.415 2.504l-2 1c-1.855-5.737-2.373-11.123-2.566-17.127-.19-4.289-.885-7.87-2.434-11.873"/><path fill="#c2caa1" d="M512 272h1c.987 5.736 1.13 11.277 1.098 17.09l-.005 2.862c-.005 2.995-.018 5.99-.03 8.986q-.009 3.06-.014 6.119-.017 7.47-.049 14.943c-2.599-2.533-3.224-4.52-3.356-8.03q-.01-2.45.028-4.9l.006-2.63q.01-2.751.04-5.502c.032-2.796.042-5.591.048-8.387l.03-5.356.014-2.52c.053-4.329.333-8.411 1.19-12.675"/><path fill="#6caece" d="m347.98 473.902 3.526.01 3.682.026 3.716.013q4.548.018 9.096.049v3c-2.64 2.64-4.588 2.261-8.184 2.273l-2.441-.023-2.371.023c-5.31-.017-9.934-.655-15.004-2.273l-1-2c3.238-1.08 5.578-1.114 8.98-1.098"/><path fill="#4197c9" d="M530 352h1l3 18h2l.184-2.3.254-3.012c.08-.987.162-1.973.246-2.989C537 359 537 359 538 356h2v26c-6.006-7.507-11.816-14.79-10.937-24.812.271-1.737.569-3.47.937-5.188"/><path fill="#3f9fcc" d="M543 602c1.527 3.054.624 5.531.125 8.875a195 195 0 0 0-1.781 17.93L541 631l-2 1q-.755-2.904-1.5-5.812l-.844-3.27C536 620 536 620 536 617h-2c1.388-3.89 3.215-6.966 5.625-10.312l1.914-2.676z"/><path fill="#eec" d="m577 228 4 1v2h14v1h-12l2.688 4.25c2.914 4.821 5.056 9.723 7.039 14.988 1.385 3.005 3.19 5.21 5.273 7.762v2c-2.72-.358-3.84-.835-5.781-2.828-4.139-5.832-6.31-11.151-8.176-18.031-1.537-4.63-4.074-8.31-7.043-12.141"/><path fill="#c5d299" d="m300.41 492.902 2.585.005c2.689.005 5.378.018 8.067.03q2.757.009 5.514.014 6.713.017 13.424.049v3q-7.12.037-14.24.055-2.412.008-4.826.02c-9.705.052-19.266-.123-28.934-1.075v-1a138 138 0 0 1 18.41-1.098"/><path fill="#4ba3d0" d="m351 510 1-1c2.863-.073 5.7-.092 8.563-.062l2.443.013q2.997.02 5.994.049l2 4c-11.111.908-21.94 1.67-33 0 4.169-2.78 8.102-4.633 13-3"/><path fill="#185ca4" d="M748.375 340.563c2.625.437 2.625.437 5 2.625C755 346 755 346 754.813 348.688 754 351 754 351 753 353c-6.405.483-6.405.483-9-1.625-1.342-3.187-.93-5.086 0-8.375 2-2 2-2 4.375-2.437"/><path fill="#0d4b97" d="M541 368c6.14 5.46 7.546 14.619 9.094 22.336 1.052 3.094 2.459 4.548 4.906 6.664l-6 2q-1.443-3.78-2.875-7.562l-.816-2.135c-2.737-7.243-4.582-13.529-4.309-21.303"/><path fill="#1863aa" d="M664 729c.75 3.25.75 3.25 1 7-1.625 2.5-1.625 2.5-4 4-2.91-.071-4.465-.644-6.875-2.25C653 736 653 736 653.063 733.5c2.147-5.727 5.416-5.88 10.937-4.5"/><path fill="#0d4794" d="M476 601c1.813.125 1.813.125 4 1 3.258 4.76 3.383 8.84 3.188 14.375l-.042 2.23A429 429 0 0 1 483 624h-2c-3.853-7.885-5.78-14.2-5-23"/><path fill="#1774b8" d="M383 475c-1 3-1 3-3.575 4.67-3.865 1.5-7.154 1.714-11.23 1.623l-2.194-.013a729 729 0 0 1-6.876-.092q-2.344-.024-4.687-.042c-3.813-.032-7.626-.084-11.438-.146l-1-3c.675.01 1.35.02 2.044.032 3.11.042 6.22.067 9.331.093l3.215.05c9.09.057 17.624-3.175 26.41-3.175"/><path fill="#eeb81d" d="M626 384a409 409 0 0 1-3 9l-.727 2.121C621.563 397 621.563 397 620 400l-1.937.41c-2.249.407-2.249.407-3.442 2.586l-1.183 2.442c-1.639 3.346-2.235 4.426-5.438 6.562 1.447-4.792 3.398-9.045 5.75-13.437l1.069-1.999C621.703 384 621.703 384 626 384"/><path fill="#1963ab" d="M275.125 340.125C277 341 277 341 279 343c.333 3.13.477 5.179-1.125 7.938-2.827 1.601-4.824.858-7.875.062-1-1-1-1-1.312-3.812C269 344 269 344 270.75 341.563 273 340 273 340 275.125 340.125"/><path fill="#196cb3" d="M755 637c2 2 2 2 2.25 5.5C757 646 757 646 755 648c-3.625-.375-3.625-.375-7-1-1.334-6.425-1.334-6.425.125-8.937 2.472-1.401 4.077-1.422 6.875-1.063"/><path fill="#186fb6" d="m313.625 489.813 3.621.33q4.38.402 8.754.857l-1 2h-35v-1c8.119-3.254 15.024-3.084 23.625-2.187"/><path fill="#1561a9" d="M366 728.125c2.333 1.02 3.515 1.796 5 3.875.438 2.5.438 2.5 0 5-1.75 1.875-1.75 1.875-4 3-3.004-.265-3.833-.833-6-3-.34-3.2-.521-5.192 1.25-7.937C364 728 364 728 366 728.125"/><path fill="#3689bc" d="M515 664q2.514.428 5 1c-1.875 4.75-1.875 4.75-3 7a73 73 0 0 0-.062 4.535l.023 2.701.039 2.827q.038 2.767.063 5.535l.035 2.484C517 692 517 692 516 693a123 123 0 0 0-.562 5.563l-.254 3.066L515 704h-1a7325 7325 0 0 1-.055-16.608q-.008-2.827-.02-5.654c-.013-2.703-.018-5.406-.023-8.11l-.015-2.569c0-2.02.05-4.04.113-6.059z"/><path fill="#3197cc" d="M401 463c2.063.438 2.063.438 4 1-15.577 13-15.577 13-22 13v-2l4-1v-4l-2-1 3.246-1.059 4.192-1.378 2.142-.698c3.483-.94 3.483-.94 6.42-2.865"/><path fill="#24659c" d="m412 389 2.797 1.469c10.146 5.242 20.504 9.615 31.167 13.697 2.07.848 4.048 1.809 6.036 2.834-4.938 1.697-8.45-.069-13-2l-2.527-.953c-4.967-1.882-9.081-4.022-13.473-7.047a1765 1765 0 0 0-7-3c-2.437-1.562-2.437-1.562-4-3z"/><path fill="#1362aa" d="M369 253c1.875 1.313 1.875 1.313 3 3-.27 2.974-.854 3.854-3 6-2.437.375-2.437.375-5 0-1.875-1.687-1.875-1.687-3-4 .188-2.687.188-2.687 1-5 2.734-1.367 4.107-.847 7 0"/><path fill="#1461a8" d="M660 253c2 2 2 2 2.313 4.5L662 260c-3.221 2.148-4.26 2.561-8 2-1.875-1.75-1.875-1.75-3-4 .188-2.187.188-2.187 1-4 2.763-1.381 4.947-1.19 8-1"/><path fill="#2c4277" d="M591 677c2.248 2.052 3.002 3.007 4 6-.033 1.936-.067 3.873-.11 5.809.117 2.322.618 4.223 1.298 6.441.812 3.75.812 3.75-.438 6.063L594 703l-2 3c.095-.892.19-1.784.29-2.703.11-1.17.22-2.341.335-3.547l.352-3.516c.023-3.173-.28-4.617-1.977-7.234l-2 3c-.194-5.527.252-9.756 2-15"/><path fill="#2879ad" d="m585 749 1 2c-.707 2.059-.707 2.059-1.812 4.438l-1.083 2.37C582 760 582 760 580 763l24 1-3 1v5l-2 1v-4q-4.344-.252-8.687-.5l-2.475-.145c-3.952-.223-7.878-.42-11.838-.355 1.125-2.972 2.223-5.334 4-8h2z"/><path fill="#1465ae" d="M270 637c3.161 1.37 3.993 1.99 6 5 .188 2.625.188 2.625 0 5-1 1-1 1-4 1.125-3-.125-3-.125-4-1.125-.273-5.736-.273-5.736 0-8z"/><path fill="#e6e5da" d="M611 725c11.827-.689 11.827-.689 15.625 1.875 4.354 3.896 4.354 3.896 4.57 6.29l-.07 2.46-.055 2.477L631 740h-1l-1-7-2 3-.562-2.312c-1.658-3.098-3.166-3.917-6.418-5.13-3.324-.919-6.587-1.257-10.02-1.558z"/><path fill="#0c53a3" d="M545 601h2c.315 7.096.446 12.683-3 19h-2q-.04-2.594-.062-5.187l-.036-2.918c.093-2.75.477-5.22 1.098-7.895h2z"/><path fill="#1059a3" d="M627 524c.238 2.266.238 2.266 0 5-1.645 1.984-1.645 1.984-3.812 3.75l-2.145 1.797C619 536 619 536 616 537l-1 2-1-3 9-9h-3l-1 2c-2.562.625-2.562.625-5 1 3.291-3.679 7.748-8.626 13-6"/><path fill="#226fb5" d="M734 496v1l-3.125.375c-3.496.564-6.559 1.412-9.875 2.625v-1l-32-1v-1c15.012-.833 29.966-1.135 45-1"/><path fill="#faf8e3" d="M419 229q3.813-.04 7.625-.062l2.16-.026c4.188-.02 8.088.261 12.215 1.088-3.054 3.054-6.705 2.43-10.812 2.563-7.15.231-7.15.231-14.188 1.437l1-3h2z"/><path fill="#08499b" d="M480 372h1c.569 12.824.569 12.824-3 19l-2 1c-.389-6.898.2-12.631 3-19z"/><path fill="#327aad" d="m427 219 2 1-5 6 22 1c-2 2-2 2-4.43 2.227-.995-.01-1.99-.02-3.015-.032l-3.262-.02-3.418-.05-3.441-.027q-4.218-.036-8.434-.098c1.58-4.393 3.552-6.824 7-10"/><path fill="#47a3d4" d="M492 620c4.548 5.281 4.548 5.281 5 9-.4 2.63-.862 5.16-1.437 7.75l-.448 2.113A704 704 0 0 1 494 644h-1a208 208 0 0 1-1-24"/><path fill="#1876bf" d="m721 491 3 2c-3.312.03-6.625.047-9.937.063l-2.807.025c-5.839.02-11.465-.334-17.256-1.088v-1l1.68-.076q3.786-.176 7.57-.361l2.645-.12 2.558-.127 2.349-.11c2.212-.146 2.212-.146 4.353-.777 2.566-.597 3.643.221 5.845 1.571"/><path fill="#efefe6" d="m750 377 2 1c-1.214 2.53-2.509 4.771-4.062 7.125C745.374 389.5 745.2 394.021 745 399h-2a382 382 0 0 1-.187-6.187l-.106-3.481c.489-5.56 3.319-8.632 7.293-12.332"/><path fill="#f3ae15" d="M401 390c2.25 0 2.25 0 5 1 1.762 2.49 3.083 5.09 4 8l-1 2h-5c-3-6.5-3-6.5-3-11"/><path fill="#367db0" d="M779 556h5l-.492 1.754c-1.747 7.728-.183 16.446.492 24.246l3 1-1.937.313L783 584l-1 3c-.642-9.678-1.168-19.294-1-29l-3 2z"/><path fill="#ecefd8" d="m585.355 760.707 3.832.106 3.856.082L596 761v1l11 1v1h-28c3-3 3-3 6.355-3.293"/><path fill="#264281" d="M319 572h5v2c-7.429 4.286-7.429 4.286-11 6l-1-1c-2.84-.283-5.682-.449-8.531-.621L301 578l-1-2 19-1z"/><path fill="#4e4d67" d="M311 413c3.856.536 6.02 1.517 9 4l3 2-3.367.734c-7.502 1.677-14.714 3.345-21.75 6.532C296 427 296 427 293 427v-2q4.342-1.474 8.688-2.937l2.474-.842c3.923-1.318 7.74-2.562 11.838-3.221-1.833-3.167-1.833-3.167-5-5"/><path fill="#2f5e7e" d="M400 382c3.995 1.37 6.8 3.257 10 6h-2c.487 3.212 1.281 5.627 2.625 8.625C412 400 412 400 411 403l-1.645-3.14-2.168-4.11-1.08-2.066c-1.83-3.46-3.746-6.555-6.107-9.684z"/><path fill="#3e99bc" d="M506 660c1.938.688 1.938.688 4 2 1.447 4.631 1.112 9.512 1.063 14.313l-.014 2.533q-.02 3.077-.049 6.154h-1l-1-17-4-2c-.875-2-.875-2-1-4z"/><path fill="#37406a" d="M319 571v4c-2.297 1.148-3.583 1.116-6.133 1.098l-2.441-.01-2.551-.025-2.574-.014q-3.15-.02-6.301-.049v-1l2.047-.367 2.703-.508 2.672-.492c2.567-.53 2.567-.53 4.703-1.696 2.643-1.32 4.969-1.07 7.875-.937"/><path fill="#f9f5dd" d="M408 725c5.673-.293 8.99-.006 14 3v2h2v2c-2.615-.448-4.923-.968-7.375-2-3.181-1.212-6.254-1.603-9.625-2z"/><path fill="#f1e385" d="M778 560c1.549 3.098.832 6.262.563 9.625l-.159 2.14q-.196 2.618-.404 5.235h-1l-1-13-3.75 2.938c-2.734 2.141-4.81 3.45-8.25 4.062.125-1.8.125-1.8 1-4 2.688-1.668 2.688-1.668 6-3.187 3.75-1.523 3.75-1.523 7-3.813"/><path fill="#48a1cd" d="M537 611h2l-.035 2.3-.028 3.013-.035 2.988c-.025 2.799-.025 2.799 1.098 5.699.04 2.333.044 4.667 0 7-2.187-3.281-2.544-5.33-3.125-9.187l-.508-3.293L536 617h-2c1.875-4.875 1.875-4.875 3-6"/><path fill="#f4c51e" d="M423 598c-4.289 5.849-4.289 5.849-6.945 6.414L410 605c.364-2.578.595-3.692 2.707-5.3l2.106-1.013 2.082-1.05c2.446-.74 3.723-.467 6.105.363"/><path fill="#2d477b" d="m799 467 3 1v2h2q.543 2.185 1.063 4.375l.597 2.46C806 479 806 479 805 481c-5.882-5.76-5.882-5.76-6.375-10.937z"/><path fill="#2c4c85" d="M593 287c2.034 2.244 2.976 3.44 3.11 6.516-.12.902-.238 1.804-.36 2.734l-.363 2.926L595 302l-.23 2.355c-.358 3.599-.836 6.551-2.77 9.645h-2c.875-6.875.875-6.875 2-8 .239-2.443.423-4.864.563-7.312l.13-2.053c.199-3.221.307-6.406.307-9.635"/><path fill="#1472b6" d="M467 449c3.66 1.432 7.24 2.99 10.813 4.625l2.957 1.352L483 456v2l-6.055-.879c-2.026-.29-2.026-.29-3.945.879v-2l-1.875-.125L469 455c-1.25-3.062-1.25-3.062-2-6"/><path fill="#2b508b" d="M429 291h1l.113 2.16c.402 6.519.402 6.519 2.45 12.652 1.517 3.366 1.704 5.545 1.437 9.188h-2c-3.247-5.267-3.373-9.4-3.187-15.375l.04-2.52c.036-2.035.09-4.07.147-6.105"/><path fill="#fcf3d1" d="m414 606-1 1 2 2a688 688 0 0 1-5.625 1.5l-3.164.844c-3.168.647-5.988.772-9.211.656 3.035-2.503 5.932-3.916 9.625-5.25l2.914-1.078C412 605 412 605 414 606"/><path fill="#215d86" d="M616 596h2a432 432 0 0 1 2.563 4.375l1.44 2.46L623 605l-1 2-10-5 1-3h3z"/><path fill="#f2f3d6" d="M764 569c-.364 2.83-.908 3.908-2.96 5.957-.798.612-1.594 1.225-2.415 1.856l-2.398 1.894L754 580l-3-1c7.973-10 7.973-10 13-10"/><path fill="#f7f4ce" d="M589 246h2l1.25 3.688c1.367 3.695 3.183 6.303 5.75 9.312v2c-2.762-.361-3.823-.807-5.738-2.89l-1.574-2.36-1.614-2.328c-1.302-2.935-.99-4.4-.074-7.422"/><path fill="#28668c" d="M406 595h1v5h6c-2.796 2.187-5.633 3.992-8.75 5.688l-2.422 1.324L400 608c1.413-4.827 3.43-8.716 6-13"/><path fill="#348fbd" d="M625 467c8.103.784 8.103.784 11.3 4.52 2.172 1.891 4.121 2.413 6.888 3.168l2.73.761L648 476c-1.687 1.125-1.687 1.125-4 2-2.398-.691-2.398-.691-5-2-.92-.463-1.84-.926-2.79-1.402l-2.835-1.536-2.852-1.527c-2.218-1.35-3.809-2.608-5.523-4.535"/><path fill="#fbf7ca" d="M745 389h1l.297 2.563c.918 6.968 2.134 12.37 5.703 18.437-2.312-.062-2.312-.062-5-1-4.267-6.258-2.9-12.783-2-20"/><path fill="#eebf2d" d="M395 379h5l.875 2.688A140 140 0 0 0 404 390l-4 1q-1.256-2.434-2.5-4.875l-1.406-2.742C395 381 395 381 395 379"/><path fill="#244e8f" d="M514 193h18v1l-11 1 1 3 2 .938 2 1.062c.625 2.066.625 2.066 1 4a595 595 0 0 1-3.687-2.687l-2.075-1.512c-2.58-2.075-4.897-4.46-7.238-6.801"/><path fill="#35558e" d="M726 576c-6 3-6 3-8.25 4.063-1.932.926-1.932.926-3.75 2.937a250 250 0 0 1-6-4v-1l2.555-.402 3.32-.535 3.305-.528c6.495-1.232 6.495-1.232 8.82-.535"/><path fill="#3f95bc" d="m683 487 2.09.84c6.072 2.34 11.416 3.734 17.91 4.16v1h-21l-1-3 2-1z"/><path fill="#84b4c4" d="M665 474h15v2c-2.29.389-4.582.76-6.875 1.125l-3.867.633L666 478l-2-2z"/><path fill="#5487a5" d="m576 226 27 2v1h-28z"/><path fill="#dfe6b4" d="M588 743c1.016 3.896 1.541 6.94 1 11-2.064 2.947-4.436 5.482-7 8l-2-1c.44-.51.88-1.02 1.332-1.547 2.07-3.044 3.192-6.243 4.356-9.703l.681-1.969q.823-2.388 1.631-4.781"/><path fill="#1c76c0" d="M401 526c4.94.141 8.263 3.081 12 6l-1 4c-2-1-2-1-4.25-2.875-2.792-2.158-5.558-3.64-8.75-5.125z"/><path fill="#40a4cf" d="M538 364c2.454 3.68 2.228 6.444 2.125 10.688l-.027 2.126c-.024 1.73-.06 3.458-.098 5.186-3.253-3.467-3.354-6.023-3.25-10.687.015-1.16.03-2.318.047-3.512C537 365 537 365 538 364"/><path fill="#294984" d="M710 407c1 3 1 3 .25 5.625-3.26 3.441-6.362 3.112-10.95 3.332L697 416c2.849-2.176 5.76-4.21 8.75-6.187l2.422-1.606z"/><path fill="#f0b41c" d="M625 380c-3.083 3.26-5.916 6.066-10 8l-3-1h2l.75-2.375C616 382 616 382 617.813 380.688c2.499-.786 4.582-.833 7.187-.688"/><path fill="#dde1b1" d="m446 227 2 1-2.25 2c-3.212 3.175-4.935 6.913-6.75 11h-1l1-10-4-2c.94-.09.94-.09 1.898-.184l2.477-.254c.812-.08 1.624-.162 2.46-.246 2.208-.207 2.208-.207 4.165-1.316"/><path fill="#2d4273" d="m529 204 3 2c3.125.167 3.125.167 6 0v2l6 2-2 1-2 3v-3l-3.25-.25c-4.029-.806-5.312-1.532-7.75-4.75z"/><path fill="#f0df46" d="m344 493-4 2v1c-5.447.097-10.639.129-16-1v-1q3.873-.544 7.75-1.062l2.21-.315c3.65-.481 6.517-.668 10.04.377"/><path fill="#3e85ba" d="M422 764h16c-4.398 2.2-7.186 2.519-12 3l1 5c-3.082-2.784-3.952-3.808-5-8"/><path fill="#dbdbc8" d="M621 724v1l-10 1 7 1v1l-14 1v-3c5.644-2.44 10.978-2.193 17-2"/><path fill="#efc227" d="m411 602 1 4q-2.685 1.005-5.375 2l-3.023 1.125C401 610 401 610 399 610c1.22-3.66 2.126-3.923 5.438-5.687l2.433-1.325C409 602 409 602 411 602"/><path fill="#4797c6" d="M538 356h2v11l-2-2-1 12c-2.539-3.809-1.868-6.223-1.187-10.5l.29-2.05c.431-2.933.958-5.633 1.897-8.45"/><path fill="#e3d78f" d="M270 576c4.01 3.675 6.594 7.098 9 12v4l-4-1v-7l-2-1v-3l-3-1z"/><path fill="#f5e38d" d="m245 561 5 2c.813 2.125.813 2.125 1 4l-4-3-1 23h-1z"/><path fill="#f4bc20" d="M403 598c1 3 1 3 .004 5.262l-1.442 2.426-1.433 2.449L399 610h-2c-.293-6.055-.293-6.055 0-8 3-2 3-2 6-2z"/><path fill="#f9e46c" d="M476 588c2.097 2.36 2.97 3.546 3.188 6.75L479 597h2l3 7-2 1c-4.523-5.816-6.812-9.557-6-17"/><path fill="#1058a6" d="m299 497 18 1v1h-8l1 3a241 241 0 0 1-4.375-.812l-2.46-.458C301 500 301 500 299 497"/><path fill="#4fa6c6" d="M531 621h1c.188 2.813.188 2.813 0 6-1.375 1.563-1.375 1.563-3 3l-1 2.625-1 2.375-3 1c1.545-5.48 4.155-10.114 7-15"/><path fill="#dede9f" d="m777 421 3 1v10l-9-6c4-1 4-1 6 0z"/><path fill="#e2e283" d="m245 422 1 4 6-3v3c-2.812 2.063-2.812 2.063-6 4l-3 2v-7h2z"/><path fill="#2f90c9" d="M540 370h1l4 18c-5.645-5.645-5.645-5.645-5.875-9l-.145-2.062c.025-2.413.367-4.617 1.02-6.938"/><path fill="#fcfbf0" d="M611 725q2.937-.079 5.875-.125l3.305-.07C623 725 623 725 625 727l-1 2-14-2z"/><path fill="#fcf9d7" d="m747 603 1.563 2.375c2.953 3.18 5.253 3.74 9.437 4.625l-1 2c-6.378.361-6.378.361-8.937-1.125-1.508-2.66-1.263-4.877-1.063-7.875"/><path fill="#528f79" d="m626 379 3 1c-1.471 3.88-3.454 5.01-7 7-1.751 1.582-1.751 1.582-3 3v-3l-2-1 1.715-1.277 2.222-1.66 2.215-1.653c1.761-1.28 1.761-1.28 2.848-2.41"/><path fill="#ece798" d="M440 756c2.252 2.688 3.882 4.646 5 8h-8v-1l-6-1v-1h9l-1-3z"/><path fill="#2770b4" d="m549 591 5 1-2 2 1 2h-4v2l2 1h-2l-1 2c-1.187-1.625-1.187-1.625-2-4 1.375-3.25 1.375-3.25 3-6"/><path fill="#1281c9" d="M383 475c-1 3-1 3-3.75 4.688-3.1 1.252-4.967 1.602-8.25 1.312l3-2-1-2c3.62-1.316 6.096-2 10-2"/><path fill="#2b85c5" d="M401 463c2.063.438 2.063.438 4 1l-6 5-1-2-2.187 1c-2.83 1.006-4.842 1.17-7.813 1 2.685-1.79 4.6-2.622 7.625-3.562 2.947-.777 2.947-.777 5.375-2.438"/><path fill="#faf8e1" d="M279 385c2 2 2 2 2.195 5.258l-.07 3.867-.055 3.883L281 401h-3z"/><path fill="#f9f4db" d="M628 380c1.113 3.316.9 5.322-.187 8.625l-.731 2.352c-1.32 2.467-2.514 3.034-5.082 4.023 1.64-5.233 3.39-10.152 6-15"/><path fill="#faf3af" d="M437 238c1.537 2.41 2.098 3.5 1.54 6.36-.303.788-.604 1.577-.915 2.39l-.898 2.422L436 251l-3-1c.665-4.389 2.188-7.981 4-12"/><path fill="#f1eda2" d="m577 228 4 1v2h14v1h-12l3 5h-3c-1.605-1.969-1.605-1.969-3.187-4.5l-1.606-2.531z"/><path fill="#e7e3b5" d="M436 743c3.102 4.653 4.338 9.415 4 15-3.092-2.53-3.91-5.225-5-9h2z"/><path fill="#224173" d="m218 511 1 2h2l1 8h2l-1 3c-4.82-3.856-4.82-3.856-5.332-7.113.017-1.966.166-3.929.332-5.887"/><path fill="#f9df1e" d="M680 493h8l1 2c-11.522 2.296-11.522 2.296-17 2 2-2 2-2 5.125-2.125L680 495z"/><path fill="#244c86" d="m315 413 13 3v2c-7.262.615-7.262.615-11-2.5z"/><path fill="#e2d9be" d="M277 379c4.958 4.798 4.958 4.798 5.098 8.82l-.036 3.305-.027 3.32L282 397h-1l-1-10h-2c-1.354-2.709-1.065-5.01-1-8"/><path fill="#edecde" d="m417 265-1 3h-13v-2c4.724-.652 9.22-1.12 14-1"/><path fill="#fcfbe8" d="m425 761 16 1c-3.81 1.905-5.092 2.254-9.125 2.188l-2.633-.02C427 764 427 764 425 763z"/><path fill="#5daad2" d="M492 654c2.463 2.463 2.325 3.475 2.563 6.875.264 3.68.264 3.68 1.09 7.258C496 670 496 670 494 673c-1.512-6.468-2.214-12.356-2-19"/><path fill="#fbcb19" d="M609 601c4.314.48 6.166 1.746 9 5-1.687.688-1.687.688-4 1-2.75-1.25-2.75-1.25-5-3z"/><path fill="#ececbb" d="m750 579 3 1c-1.25 3.46-2.675 6.147-5 9v-2h-2c1.125-2.972 2.223-5.334 4-8"/><path fill="#3d486e" d="m715.625 574.938 3.602.027L722 575c-2.77 2.77-4.765 2.398-8.625 2.625l-3.602.227L707 578v-2c2.884-1.442 5.417-1.094 8.625-1.062"/><path fill="#1d63a8" d="M627 524v5a85 85 0 0 1-7-2l-1 2c-2.562.625-2.562.625-5 1 3.291-3.679 7.748-8.626 13-6"/><path fill="#2a447c" d="m489 781 2 3-2.875-.625L485 783l-2 2-4-3 1-2c3.696-1.199 5.775-1.224 9 1"/><path fill="#348fc8" d="M543 602c1.569 3.138.561 6.266.063 9.625l-.303 2.14q-.373 2.618-.76 5.235h-1c-1.113-4.451-1.29-8.437-1-13 1.5-2.5 1.5-2.5 3-4"/><path fill="#2d497e" d="M804 509c1.735 3.47.749 7.29 0 11-1.562 3.063-1.562 3.063-3 5-1.56-3.119-1.283-5.545-1-9 1.127-2.54 2.472-4.66 4-7"/><path fill="#0f63a8" d="M477 464c2.316 2.509 2.986 3.644 3.125 7.125L480 474l1 2-3-1c-1.747-3.493-3-6.068-3-10z"/><path fill="#fbf8df" d="M395 738h3l2 7-2 2c-1.5-1.125-1.5-1.125-3-3-.187-3.187-.187-3.187 0-6"/><path fill="#4ca2d0" d="m529 659 3 1a492 492 0 0 1-.375 5.375l-.21 3.023C531 671 531 671 529 673z"/><path fill="#1578c3" d="m677.75 477.938 2.422.027L682 478c-2.61 2.144-4.612 3.59-8 4-2.75-.437-2.75-.437-5-1v-2c2.995-.872 5.636-1.108 8.75-1.062"/><path fill="#196393" d="M610 402h2c-1.76 5.92-4.397 11.416-7 17l-2-2c2.217-5.064 4.476-10.079 7-15"/><path fill="#6b88b4" d="M445 365h1l.438 2.813c.483 3.194.483 3.194 1.562 6.187a113 113 0 0 1-.437 6.188l-.31 3.292L447 386h-1c-1.1-7.018-1.097-13.906-1-21"/><path fill="#e1da9a" d="M628 249c2.473 3.71 2.385 5.61 2 10-1.5 2.438-1.5 2.438-3 4l-2-2c.375-3.125.375-3.125 1-6l2 1z"/><path fill="#3283b4" d="M446 226h4c-1.654 3.91-4.26 6.792-7 10a241 241 0 0 0-3 4c.38-5.434 2.129-7.327 6-11z"/><path fill="#2a4073" d="M538.313 782.688 540 784l2 1-2 2c-2.125-.375-2.125-.375-4-1v-2l-7 5v-3c6.393-4.18 6.393-4.18 9.313-3.312"/><path fill="#ebebde" d="M763 609v3c-2.525 1.262-4.312 1.099-7.125 1.063l-2.758-.028L751 613v-1l6-1v-2c3-1 3-1 6 0"/><path fill="#e9be29" d="M542 573c5.361 1.59 10.708 3.19 16 5-3.818 1.374-7.073.68-11 0v-1l-6-1z"/><path fill="#f6f6df" d="M275 410c-1.556 3.82-3.956 6.26-7 9h-2c1.328-4.347 3.914-9 9-9"/><path fill="#facd54" d="m337 354 11 3v1h-13v-2h2z"/><path fill="#4da1cc" d="M529 319h2q.33 2.936.625 5.875l.352 3.305L532 331l-2 2c-.936-3.155-1.106-5.966-1.062-9.25l.027-2.703z"/><path fill="#47537c" d="M591 677c2.248 2.052 3.002 3.007 4 6l-2 2h-3l-1 3c1-7.429 1-7.429 2-11"/><path fill="#eab329" d="M485 579c3.67 3.277 5.693 6.715 8 11l-3 1c-1.46-2.647-2-3.894-2-7l-3-1z"/><path fill="#2475ad" d="m240 569 2 1-1 15-4-1 1-2h1z"/><path fill="#3d7aa2" d="m471 531 .875 1.875c1.062 2.258 1.062 2.258 3.125 4.125-5.75 4-5.75 4-8 4z"/><path fill="#ebca4e" d="M480 387c.625 1.813.625 1.813 1 4l-2 3h-2v9l-3-1h2l-.14-1.758c-.27-5.833.428-8.718 4.14-13.242"/><path fill="#2a6db3" d="m474 591 1 5-2-1c-2.117.892-2.117.892-4 2v-3l-3-1c2.906-1.257 4.796-2 8-2"/><path fill="#444c68" d="M234 463c-1.448 3.444-3.277 5.361-6.125 7.75l-2.195 1.86L224 474l-1-2 1-2h2v-2c5.476-5 5.476-5 8-5"/><path fill="#f5c83d" d="M400 379c3.912 1.156 6.875 2.355 10 5-2.187.75-2.187.75-5 1-2.812-1.812-2.812-1.812-5-4z"/><path fill="#287ab9" d="M487 365h1l1 6 1-6h1c.39 5.86.39 5.86 0 8l-4 4z"/><path fill="#f1f0c8" d="m604 727 1 3c-5.75 4-5.75 4-8 4 2.395-7 2.395-7 7-7"/><path fill="#f9d256" d="M394 604h3v6l3 1 1 2c-2.375.125-2.375.125-5 0-2-2-2-2-2.125-5.625z"/><path fill="#edeca9" d="m251 565 7 2v4c-4.677-1.477-4.677-1.477-6.312-4.125z"/><path fill="#0d68bc" d="M734 496v1l-3.125.375c-3.83.477-3.83.477-7.062 1.875-2.813.75-2.813.75-5.188-.625L717 497c5.707-.993 11.214-1.105 17-1"/><path fill="#2678c1" d="M710 491v2l-16-1v-1q2.874-.292 5.75-.562l3.234-.317c2.657-.107 4.516.06 7.016.879"/><path fill="#0c519c" d="M366.688 469.813 370 470v3h-10c3-3 3-3 6.688-3.187"/><path fill="#1f92c5" d="M506 667c3 1 3 1 4 3 .072 2.552.093 5.075.063 7.625l-.014 2.14q-.02 2.618-.049 5.235h-1l-.148-2.414c-.552-7.968-.552-7.968-2.852-15.586"/><path fill="#f2edc6" d="m547 587 5 1-1 3h-2l-2 6c-1.231-3.694-.644-6.206 0-10"/><path fill="#3e82a4" d="M258 567c5.442.34 8.937 3.703 13 7l-1 2a952 952 0 0 1-4.312-2.812l-2.426-1.583A32.8 32.8 0 0 1 258 567"/><path fill="#d8e0c4" d="m243 558 3 3c-.184 5.063-.886 6.848-4 11z"/><path fill="#d1c84a" d="M544 476h1l-.187 2.813c-.122 3.171-.122 3.171 1.687 5.062L548 485l-7-1c1.875-5.75 1.875-5.75 3-8"/><path fill="#224583" d="M719 409v5l-8-1v-2c6.875-2 6.875-2 8-2"/><path fill="#2167a2" d="M549 390c4.875 4.75 4.875 4.75 6 7l-6 2c-.845-3.378-1.108-5.675 0-9"/><path fill="#e8e7db" d="m750 377 2 1c-1.372 2.954-2.989 5.44-5 8l-3-1c1.443-3.366 3.333-5.51 6-8"/><path fill="#fdd449" d="m664 327 5 1c-2.853 2.932-5.65 5.643-9 8 1.199-3.083 2.477-6.063 4-9"/><path fill="#f6f4e6" d="M401 725h7l-1 3-8 1z"/><path fill="#3075b1" d="M476 596a91 91 0 0 1 4 4v2l-4-1v8h-1a535 535 0 0 1-.062-4.25l-.036-2.39c.094-2.267.466-4.189 1.098-6.36"/><path fill="#033785" d="M545 601h2q.079 2.187.125 4.375l.07 2.46C547 610 547 610 545 612c-1.125-7.625-1.125-7.625 0-11"/><path fill="#d9c03d" d="m444 556 1 4 3 1v3l-5 1z"/><path fill="#e4c936" d="M552 503v2c-3.73 2.034-5.67 3-10 3v-2q1.935-.755 3.875-1.5l2.18-.844C550 503 550 503 552 503"/><path fill="#1e4a86" d="m425 470 2 1a312 312 0 0 1-4.25 4.063l-2.39 2.285L418 479l-4-1z"/><path fill="#fcd34f" d="m628 377 1 2c-5.415 1.23-5.415 1.23-8.375.063L619 378c3.32-2.09 5.268-2.21 9-1"/><path fill="#49a5cf" d="m493 360 2 3c-.932 3.106-2.192 5.288-4 8-.25-7.625-.25-7.625 2-11"/><path fill="#3d4a72" d="M490 208h2c-.71 1.953-.71 1.953-2 4-2.164.61-2.164.61-4.625.75l-2.477.172L481 213c1.3-1.488 1.3-1.488 3-3 3.188-.187 3.188-.187 6 0z"/><path fill="#426f64" d="m619 600 4 5-1 2-8-4v-1h5z"/><path fill="#3889b6" d="m242 555 4 3-1 2-1-1-1 9h-1q-.29-2.968-.562-5.937l-.317-3.34L241 556z"/><path fill="#3a90c4" d="M391 521c5.294-.504 7.814.81 12 4-3.642 1.214-4.332.667-7.687-.937l-2.45-1.153L391 522z"/><path fill="#d2c656" d="M556 488h9l1 2 3 1v2a716 716 0 0 1-4.812-1.375l-2.708-.773C559 490 559 490 556 488"/><path fill="#156ca8" d="M546 468c.883 2.467 1.131 3.639.223 6.14l-1.16 2.11-1.153 2.14L543 480c-.883-2.467-1.131-3.639-.223-6.14l1.16-2.11 1.153-2.14z"/><path fill="#317ea4" d="m557 449-2 5h-8c6.364-5 6.364-5 10-5"/><path fill="#125c90" d="m601 421 2 1-3 9-3-1z"/><path fill="#f3eed8" d="M476 396v6l-8-1 4-1v-2c3-2 3-2 4-2"/><path fill="#0956a6" d="M480 372h1v12h-1l-1-6-2 3c.498-3.735.875-5.812 3-9"/><path fill="#f9f9f0" d="m406 237 2 2c-3.173 3.536-5.167 5.586-10 6z"/><path fill="#1e6bb4" d="M539 206h12v1l-2.875.375c-3.212.342-3.212.342-5.125 2.625l-4-2z"/><path fill="#24589b" d="M428 682h1c.375 2.125.375 2.125 0 5-1.793 2.24-3.835 4.125-6 6l-2-1 1.277-1.68 1.66-2.195 1.653-2.18c1.45-1.889 1.45-1.889 2.41-3.945"/><path fill="#f8c942" d="M680 630h11l-2 4-9-3z"/><path fill="#fcf4d3" d="m396 594 1 4h2c-1.75 5.75-1.75 5.75-4 8z"/><path fill="#285393" d="m815 496 1 2c-4 6.571-4 6.571-8 8 1.668-3.941 4.227-6.79 7-10"/><path fill="#0f5eaa" d="M718 490v1h-16c5.18-3.453 10.51-3.917 16-1"/><path fill="#e6c24e" d="M624 384h2l-2 7-4-1c1.152-2.468 2.048-4.048 4-6"/><path fill="#e2b022" d="M395 379h5l1 3-1 2-4-1z"/><path fill="#3a446c" d="M593 300c.196 4.219-.198 7.17-2 11h-1v-10c2-1 2-1 3-1"/><path fill="#fbf7cf" d="M432 250h3c-.25 2.375-.25 2.375-1 5-2.062 1.313-2.062 1.313-4 2 .875-4.75.875-4.75 2-7"/><path fill="#e9d986" d="M422 728c7.714 4 7.714 4 9 8h-2l-1-2c-2.527-.656-2.527-.656-5-1l1-3h-2z"/><path fill="#f8cf4c" d="m617 604 6 3v3l-7-2z"/><path fill="#fdf6df" d="m412 605 2 1-1 1 2 2-9 1 1-2h3v-2z"/><path fill="#51a4cc" d="m348 511 2 2c-4.084 1.532-7.795.63-12 0 3.673-2.449 5.664-2.315 10-2"/><path fill="#1373be" d="M303 490c-1.963 2.048-3.428 2.95-6.27 3.2-2.25-.011-4.484-.07-6.73-.2v-1q2.401-.796 4.813-1.562l2.707-.88C300 489 300 489 303 490"/><path fill="#094598" d="M651 469c7.429-.286 7.429-.286 11 2v1c-1.46-.114-2.917-.242-4.375-.375l-2.46-.21C653 471 653 471 651 469"/><path fill="#f8f5c7" d="m266 415 2 1c-.625 1.875-.625 1.875-2 4-3.125 1.25-3.125 1.25-6 2 1.393-3.367 2.979-4.986 6-7"/><path fill="#d7d6b8" d="M545 389c2 1 2 1 3.188 3.125 1.014 3.588.523 6.25-.188 9.875h-1z"/><path fill="#1355a9" d="M533 332h3l1 6-4 1z"/><path fill="#257aae" d="m576 226 14 1v1q-2.906.252-5.812.5l-3.27.281C578 229 578 229 575 229z"/><path fill="#4087b6" d="M443 760h2l.313 1.938L446 764l3 1v1h-7l-1-2 3-1z"/><path fill="#fdfac6" d="M591 742c1.255 3.766.37 5.372-1 9h-2c.586-6.152.586-6.152 1-8z"/><path fill="#fcd262" d="M662 652c2.5 2.063 2.5 2.063 5 5 .313 3.813.313 3.813 0 7l-2-4-1.625-3.125C662 654 662 654 662 652"/><path fill="#449ec5" d="m484 609 4 2v3h-3l-1 2z"/><path fill="#2c4b83" d="M726 576c-5.01 3.006-8.327 3.293-14 3 1-2 1-2 2.926-2.668l2.386-.52 2.364-.542c2.416-.28 4.026-.011 6.324.73"/><path fill="#438b96" d="M552 534h2c3 4.385 3 4.385 3 7l-5-2z"/><path fill="#367999" d="M452 493.188c2 .812 2 .812 3.25 2.875L456 498a129 129 0 0 1-7-2l-1-2c2-1 2-1 4-.812"/><path fill="#3276a7" d="m566 493 9 1v2h-8z"/><path fill="#fad428" d="m349 492-4 1v3h-5l-1-2c3.508-1.604 6.144-2.22 10-2"/><path fill="#6eafcd" d="m665 474 1.625.438c2.774.657 5.56 1.114 8.375 1.562v1c-1.456.222-2.915.427-4.375.625l-2.46.352L666 478l-2-2z"/><path fill="#d9b02c" d="m581 424-1 8-.687-1.875c-1.692-2.74-3.305-3.175-6.313-4.125v-1c2.763-.597 5.16-1 8-1"/><path fill="#e7e9d0" d="M749 410c2.438.375 2.438.375 5 1l1 2-2 3a91 91 0 0 1-4-4z"/><path fill="#2b619b" d="m466 392 4 2v2h4v2c-5.75-.875-5.75-.875-8-2z"/><path fill="#58add2" d="M538 364c2 3 2 3 2 7h-2l-1 3q-.04-2.22-.062-4.437l-.036-2.497C537 365 537 365 538 364"/><path fill="#234885" d="M594 683c4.875 4.75 4.875 4.75 6 7l-5-2-1 2z"/><path fill="#dfba43" d="m405 604 2 1-1 3c-3.562 1.188-3.562 1.188-7 2 1-3 1-3 3.438-4.75z"/><path fill="#fdd04a" d="M622 594c2.686 2.686 3.06 5.376 4 9l-3-1v-3h-2z"/><path fill="#0f6abb" d="M407 530c2.5.313 2.5.313 5 1l1 2-1 3c-2.504-1.252-4.064-3-6-5z"/><path fill="#555670" d="M801 513c0 4.39-2.128 5.77-5 9l-1-3z"/><path fill="#d9c944" d="M357 489v2c-2.405 1.203-3.95 1.1-6.625 1.063l-2.477-.028L346 492c3.792-1.947 6.7-3 11-3"/><path fill="#0d549f" d="m310 486 2 1v3h-7v-2c2.375-1.062 2.375-1.062 5-2"/><path fill="#4099cc" d="M680 474h5l-1 3h-9v-1h5z"/><path fill="#ead97a" d="m413 458 4 2c-5.415 3.077-5.415 3.077-8.375 2.688L407 462z"/><path fill="#2a7eab" d="M467 449c2.915 1.074 4.778 1.778 7 4l-5 2z"/><path fill="#eab51f" d="M560 408v3l-9 2v-2c5.625-3 5.625-3 9-3"/><path fill="#215c98" d="m443 404 9 2-3 2c-3.687-.875-3.687-.875-7-2z"/><path fill="#eac234" d="m491 398 3 1-5 7-1-4c1.438-2.25 1.438-2.25 3-4"/><path fill="#f9efa8" d="m627 262-1 3c-2.562 1.188-2.562 1.188-5 2v-2l-2-1c2.906-1.257 4.796-2 8-2"/><path fill="#fdf5b4" d="m419 727 3 1v2h2v2c-3.375-.547-5.082-1.055-8-3h3z"/><path fill="#37548d" d="M319 572h5v2c-2.312 1.688-2.312 1.688-5 3l-3-1 3-1z"/><path fill="#ecca2e" d="m451 532 2 1c-.875 5.75-.875 5.75-2 8h-2z"/><path fill="#1269bb" d="M342 478c2.875-.125 2.875-.125 6 0l2 2-7 1z"/><path fill="#eac033" d="m424 470-1 3c-2.562 1.188-2.562 1.188-5 2l-1-3c4.75-2 4.75-2 7-2"/><path fill="#f5d65e" d="M605 459c7.508-.37 7.508-.37 10 1.5l1 1.5h-6v-2h-5z"/><path fill="#2a5aa0" d="m710 407 1 3c-2.565 2.565-4.477 2.54-8 3 2.257-2.335 4.28-4.187 7-6"/><path fill="#f5efb2" d="m748 404 4 5-4 1-2-4h2z"/><path fill="#edbb2d" d="M619 390h4l-1 5-5-1z"/><path fill="#f0d33d" d="m486 379 1 2c-1.25 2.563-1.25 2.563-3 5l-3 1c1.372-2.954 2.989-5.44 5-8"/><path fill="#2b599b" d="m236 364 2 3-5 7-1-2c.777-1.945.777-1.945 1.938-4.125l1.152-2.195z"/><path fill="#3e69a1" d="M447 319h1c1.12 5.49.792 8.834-1 14h-1c-.083-4.833.047-9.237 1-14"/><path fill="#313c6b" d="m430 298 1 3 3 1v7l-.875-1.812c-1.172-2.381-1.172-2.381-3.125-5.188z"/><path fill="#1b5596" d="M428 296h1l1 11-2 1-2-5h2z"/><path fill="#fdfbd8" d="M627 249c1.43 2.354 2.087 3.48 1.625 6.25L628 257c-2.36-2.36-2.491-3.779-3-7z"/><path fill="#fcf7c1" d="m433 742 3 1 1 6-3-1z"/><path fill="#fdf4b0" d="m425 733 4 1v2h2l1 3h-3c-2.187-3-2.187-3-4-6"/><path fill="#39385c" d="M593 684v6l-2-1-2 3c.256-2.343.593-4.678 1-7 2-1 2-1 3-1"/><path fill="#4eaed5" d="M492 620c1.5 1.25 1.5 1.25 3 3v4l-3 1z"/><path fill="#fbf6b3" d="m259 569 5 2v2l-6-1z"/><path fill="#e7d149" d="m405 463 2 1-5 6-3-2z"/><path fill="#d5b426" d="m605 416 2 4-4 6c-1-2-1-2-.441-3.945l.879-2.18.87-2.195z"/><path fill="#3679a2" d="m272 414 1 3c-2.812 2.063-2.812 2.063-6 4l-3-1 2.875-1.875c3.07-1.945 3.07-1.945 5.125-4.125"/><path fill="#224a7e" d="m487 407 1 3c-1.937 2.688-1.937 2.688-4 5l-2-1z"/><path fill="#1765a9" d="M433 401c6.523.615 6.523.615 8.938 2.563L443 405c-3.558-.61-6.683-1.578-10-3z"/><path fill="#3b6a69" d="M400 382c4.875 1.75 4.875 1.75 6 4h-2l-1 2c-3-3.75-3-3.75-3-6"/><path fill="#2980bd" d="M532 364c2 3.75 2 3.75 2 6h2l-1 4c-2.354-2.55-2.983-3.71-3.187-7.25z"/><path fill="#fad165" d="M683.25 355.313 685 356v2h-8c3.446-3.077 3.446-3.077 6.25-2.687"/><path fill="#626075" d="m534 210 6 1v5a318 318 0 0 1-6-5z"/></svg>